<svg width="42" height="42" viewBox="0 0 42 42" fill="none" xmlns="http://www.w3.org/2000/svg">
<g clip-path="url(#clip0_75_57)">
<path d="M21.0002 41.1925C32.1508 41.1925 41.1901 32.1531 41.1901 21.0025C41.1901 9.85186 32.1508 0.8125 21.0002 0.8125C9.84954 0.8125 0.810181 9.85186 0.810181 21.0025C0.810181 32.1531 9.84954 41.1925 21.0002 41.1925Z" fill="white"/>
<path d="M20.9993 41.9999C16.1409 41.9998 11.4329 40.315 7.67735 37.2328C3.92184 34.1506 1.35122 29.8616 0.403473 25.0965C-0.544272 20.3315 0.189498 15.3852 2.47976 11.1005C4.77003 6.8158 8.47509 3.45776 12.9637 1.59853C17.4522 -0.260692 22.4466 -0.506073 27.0958 0.904202C31.745 2.31448 35.7614 5.29315 38.4606 9.33271C41.1599 13.3723 42.375 18.2228 41.8989 23.0578C41.4228 27.8928 39.285 32.4132 35.8497 35.8487C33.9041 37.805 31.5898 39.356 29.0407 40.4119C26.4916 41.4678 23.7584 42.0075 20.9993 41.9999ZM20.9993 1.62086C10.3142 1.62086 1.62104 10.314 1.62104 20.9991C1.62104 31.6842 10.3142 40.3808 20.9993 40.3808C31.6844 40.3808 40.381 31.6877 40.381 21.0026C40.381 10.3174 31.6853 1.62433 20.9993 1.62433V1.62086Z" fill="black"/>
<path d="M21.0451 12.6021H30.5154C31.3073 12.6021 31.5015 12.7998 31.5015 13.5969V28.3988C31.5015 29.1924 31.3055 29.3902 30.5119 29.3902H11.489C10.6971 29.3902 10.5037 29.1941 10.5037 28.3953V13.5952C10.5037 12.7998 10.698 12.6038 11.4925 12.6038L21.0451 12.6021Z" fill="black"/>
<path d="M30.1006 14.8286V15.2477C30.1006 19.3609 30.1027 23.4735 30.1068 27.5855C30.1068 27.8883 30.056 27.9959 29.7174 27.995C23.909 27.9839 18.1009 27.9813 12.2931 27.9871C12.0805 27.9871 11.8871 28.0449 11.888 27.68C11.9029 23.4572 11.8976 19.2343 11.8985 15.0106C11.9042 14.9536 11.913 14.8969 11.9247 14.8409C12.6536 15.463 13.3545 16.0589 14.0528 16.6583C16.1698 18.4713 18.2855 20.2852 20.4002 22.1C20.8736 22.5051 21.1256 22.5043 21.6156 22.0851C24.2511 19.8288 26.8864 17.5712 29.5214 15.3125C29.6972 15.1672 29.8722 15.0229 30.1006 14.8286Z" fill="#FEFEFE"/>
<path d="M13.162 14.0293H28.7785C28.8257 14.1325 28.7199 14.1597 28.6674 14.2043C26.1899 16.3306 23.7121 18.4566 21.2341 20.5823C21.0809 20.7136 20.9873 20.7696 20.7966 20.6077C18.3074 18.4586 15.8087 16.3151 13.3003 14.1772C13.2662 14.1465 13.2355 14.1072 13.162 14.0293Z" fill="#FEFEFE"/>
</g>
<defs>
<clipPath id="clip0_75_57">
<rect width="42" height="41.9948" fill="white"/>
</clipPath>
</defs>
</svg>
