<svg width="176" height="58" viewBox="0 0 176 58" fill="none" xmlns="http://www.w3.org/2000/svg">
<path d="M104.565 53.3278C115.653 53.3278 124.641 44.3394 124.641 33.2516C124.641 22.1638 115.653 13.1754 104.565 13.1754C93.4772 13.1754 84.4887 22.1638 84.4887 33.2516C84.4887 44.3394 93.4772 53.3278 104.565 53.3278Z" fill="#FAEF59"/>
<path d="M55.1319 39.7627V28.2509H59.608V49.5134H55.1319V45.635C54.4379 46.9057 53.4146 47.966 52.1693 48.7046C50.9241 49.4433 49.5029 49.8329 48.0551 49.8328C45.6551 49.8328 43.7159 49.0997 42.2375 47.6335C40.7592 46.1673 40.02 44.0487 40.02 41.2776V28.2509H44.4961V39.9224C44.4961 43.8373 46.122 45.7947 49.3737 45.7947C50.8666 45.8158 52.3111 45.2658 53.4118 44.2571C54.5585 43.2319 55.1319 41.7338 55.1319 39.7627Z" fill="white"/>
<path d="M76.4765 27.927C77.8296 27.9074 79.1728 28.1594 80.4267 28.668C81.6807 29.1767 82.8199 29.9316 83.777 30.8882C85.7968 32.8593 86.8082 35.4844 86.8112 38.7635C86.8143 42.0427 85.8089 44.7073 83.7952 46.7575C82.8991 47.725 81.8129 48.4972 80.6046 49.0256C79.3963 49.5539 78.0919 49.8272 76.7731 49.8283C74.0933 49.8283 71.6887 48.6556 69.5594 46.3104V49.5043H65.0833V19.8463H69.5594V31.9559C71.3145 29.2699 73.6203 27.927 76.4765 27.927ZM69.4773 38.9232C69.405 40.757 70.0612 42.5449 71.3024 43.8967C71.8689 44.5193 72.5614 45.0143 73.3339 45.3486C74.1065 45.683 74.9413 45.8491 75.783 45.8358C76.6384 45.8418 77.4862 45.6751 78.2756 45.3459C79.0651 45.0166 79.7801 44.5314 80.3777 43.9195C81.03 43.2699 81.5407 42.4922 81.8776 41.6354C82.2145 40.7787 82.3703 39.8614 82.3351 38.9415C82.3651 38.0106 82.2113 37.0829 81.8825 36.2115C81.5537 35.3401 81.0563 34.5421 80.4188 33.8631C79.8383 33.221 79.1282 32.7092 78.3354 32.3616C77.5426 32.0139 76.6851 31.8383 75.8195 31.8464C74.9652 31.834 74.1185 32.008 73.3384 32.3563C72.5583 32.7046 71.8634 33.2188 71.3024 33.8631C70.0672 35.2532 69.4138 37.0648 69.4773 38.9232Z" fill="#4AB138"/>
<path d="M38.5645 49.2673H28.896L18.1324 34.1234H16.4168L16.248 49.2946L8.16736 49.2673H4.24338C3.26113 49.2661 2.31946 48.8753 1.6249 48.1808C0.930349 47.4862 0.53962 46.5445 0.538413 45.5623V34.9493C0.541969 33.6941 0.969679 32.4769 1.75211 31.4953C3.48596 29.3188 5.91792 26.8093 8.49132 25.874C12.8351 24.2998 16.0746 24.8701 16.0746 24.8701L16.1476 31.1303L29.4116 19.5773L16.5948 8.33011V14.5127C16.5948 14.5127 11.2016 13.9697 7.17724 15.6123C4.7316 16.6115 2.1582 18.9979 0.538413 20.718V8.6997C0.53601 8.10976 0.650132 7.52515 0.874229 6.97943C1.09833 6.4337 1.42799 5.9376 1.84429 5.5196C2.2606 5.1016 2.75535 4.76993 3.30016 4.54361C3.84497 4.3173 4.42911 4.2008 5.01905 4.20081H17.2929C24.1644 4.20081 29.0831 5.36127 32.0489 7.6822C35.0147 10.0031 36.4976 13.7187 36.4976 18.829C36.4976 26.2603 33.2535 30.9432 26.7652 32.8778L38.5645 49.2673Z" fill="white"/>
<path d="M16.248 49.7509L4.24337 49.7235C3.14011 49.7223 2.08239 49.2835 1.30226 48.5034C0.52214 47.7232 0.0833328 46.6655 0.0821251 45.5623V34.9493C0.0855607 33.591 0.548728 32.2738 1.3962 31.2124C3.05249 29.1272 5.60307 26.4351 8.33617 25.445C12.7438 23.848 16.0153 24.3956 16.1522 24.4184C16.2593 24.4369 16.3563 24.493 16.4258 24.5766C16.4952 24.6603 16.5325 24.766 16.5309 24.8747L16.5948 30.1447L28.6998 19.5773L17.0328 9.33389V14.5126C17.0327 14.5763 17.0192 14.6392 16.9933 14.6974C16.9673 14.7555 16.9295 14.8076 16.8822 14.8503C16.8349 14.8927 16.7791 14.9248 16.7186 14.9444C16.6581 14.9641 16.5942 14.9709 16.5309 14.9643C16.4762 14.9643 11.2016 14.4579 7.33236 16.032C4.99166 16.9902 2.51408 19.2807 0.853234 21.0511C0.790242 21.1176 0.708676 21.1636 0.619157 21.1832C0.529638 21.2027 0.436309 21.1948 0.351327 21.1606C0.266429 21.1268 0.193642 21.0682 0.14239 20.9926C0.0911384 20.9169 0.0637886 20.8276 0.063877 20.7362V8.69966C0.0620706 8.04843 0.189006 7.40327 0.437387 6.80126C0.685767 6.19926 1.05069 5.65229 1.51118 5.1918C1.97167 4.73131 2.51864 4.36639 3.12064 4.11801C3.72265 3.86962 4.36782 3.74269 5.01904 3.7445H17.2929C24.2374 3.7445 29.2975 4.94906 32.35 7.3217C35.4025 9.69434 36.9721 13.5909 36.9721 18.829C36.9721 26.2161 33.7782 31.0253 27.5226 33.1242L38.9295 48.9798C38.9793 49.0479 39.0092 49.1284 39.016 49.2125C39.0227 49.2966 39.006 49.3809 38.9677 49.4561C38.9294 49.5312 38.871 49.5943 38.799 49.6383C38.7271 49.6823 38.6443 49.7055 38.5599 49.7053H28.896C28.8228 49.7056 28.7507 49.6884 28.6855 49.6551C28.6204 49.6217 28.5643 49.5732 28.5219 49.5136L17.8997 34.5614H16.8686L16.7043 49.2809C16.7061 49.342 16.6957 49.4028 16.6736 49.4597C16.6515 49.5167 16.6181 49.5686 16.5756 49.6124C16.533 49.6563 16.4821 49.6911 16.4258 49.7149C16.3696 49.7387 16.3091 49.7509 16.248 49.7509ZM14.5552 25.2306C12.5462 25.2466 10.5549 25.6094 8.66926 26.3028C6.13692 27.2154 3.71865 29.7888 2.13537 31.7781C1.41634 32.6792 1.02246 33.7965 1.01749 34.9493V45.5623C1.0199 46.4231 1.36295 47.248 1.97167 47.8568C2.5804 48.4655 3.40532 48.8085 4.26618 48.8109H8.16735L15.8237 48.8383L15.9834 34.1143C15.9834 33.9933 16.0314 33.8772 16.117 33.7916C16.2026 33.7061 16.3186 33.658 16.4397 33.658H18.1553C18.2284 33.6576 18.3006 33.6748 18.3657 33.7082C18.4308 33.7415 18.487 33.79 18.5294 33.8496L29.1561 48.8109H37.693L26.4184 33.1652C26.3751 33.1063 26.3467 33.0378 26.3354 32.9655C26.3241 32.8933 26.3304 32.8194 26.3536 32.7501C26.3769 32.6807 26.4165 32.618 26.469 32.5672C26.5216 32.5164 26.5856 32.4789 26.6557 32.458C32.966 30.5736 36.0459 26.1021 36.0459 18.8473C36.0459 13.9058 34.6086 10.2738 31.7706 8.05631C28.9325 5.8388 24.0321 4.65705 17.2929 4.65705H5.01904C3.95209 4.65826 2.92917 5.08264 2.17472 5.83709C1.42027 6.59154 0.995886 7.61446 0.994679 8.68141V19.5773C2.66921 17.9164 4.86847 16.0412 7.00384 15.1697C10.4122 13.8008 14.6875 13.9103 16.1294 14.0016V8.33008C16.1296 8.24231 16.1551 8.15645 16.2028 8.08281C16.2506 8.00916 16.3185 7.95085 16.3986 7.91486C16.4784 7.87892 16.5669 7.8667 16.6534 7.87964C16.74 7.89259 16.821 7.93016 16.8868 7.98787L29.7127 19.2579C29.7614 19.3007 29.8004 19.3533 29.8272 19.4123C29.8539 19.4713 29.8678 19.5353 29.8679 19.6001C29.8684 19.6657 29.8549 19.7306 29.8281 19.7904C29.8013 19.8502 29.762 19.9036 29.7127 19.9469L16.4488 31.4952C16.3834 31.5521 16.3032 31.5891 16.2176 31.602C16.1319 31.615 16.0444 31.6032 15.9651 31.5683C15.8849 31.5333 15.8165 31.4759 15.7679 31.4031C15.7194 31.3303 15.6928 31.2451 15.6914 31.1576L15.6229 25.299C15.372 25.2534 15.0115 25.2306 14.5552 25.2306Z" fill="white"/>
<path d="M16.248 49.8286H4.24337C3.1187 49.8261 2.04078 49.3783 1.24552 48.583C0.45025 47.7878 0.00241088 46.7099 0 45.5852V34.9494C0.00483453 33.573 0.474302 32.2385 1.33233 31.1623C2.99774 29.068 5.55745 26.3668 8.3088 25.3721C12.7347 23.766 16.029 24.3181 16.1659 24.3409C16.2913 24.3612 16.4057 24.4248 16.489 24.5207C16.5724 24.6166 16.6195 24.7386 16.6222 24.8657L16.6815 29.9623L28.604 19.5774L17.1378 9.53932V14.5127C17.1376 14.5873 17.1222 14.661 17.0924 14.7293C17.0625 14.7975 17.019 14.859 16.9644 14.9097C16.9083 14.9598 16.8425 14.9978 16.771 15.0214C16.6996 15.0449 16.6241 15.0535 16.5492 15.0466C16.4944 15.0466 11.2381 14.5401 7.38712 16.1097C5.06467 17.0588 2.59621 19.3401 0.939929 21.0877C0.864282 21.1582 0.770059 21.2057 0.668353 21.2245C0.566648 21.2433 0.461689 21.2326 0.365824 21.1938C0.269958 21.155 0.187179 21.0896 0.127221 21.0053C0.0672626 20.921 0.0326212 20.8214 0.0273755 20.7181V8.69977C0.0273755 7.36864 0.556162 6.09203 1.49742 5.15077C2.43867 4.20952 3.71529 3.68073 5.04642 3.68073H17.2929C24.2557 3.68073 29.334 4.88986 32.382 7.27619C35.4299 9.66252 37.0314 13.5865 37.0314 18.8474C37.0314 26.2345 33.8694 31.0528 27.6321 33.1836L38.9934 48.9525C39.0512 49.0327 39.0858 49.1272 39.0935 49.2258C39.1011 49.3243 39.0814 49.4231 39.0367 49.5112C38.9919 49.5993 38.9237 49.6734 38.8396 49.7254C38.7556 49.7773 38.6588 49.8051 38.5599 49.8057H28.896C28.807 49.8084 28.7188 49.789 28.6391 49.7491C28.5595 49.7093 28.491 49.6504 28.4397 49.5776L17.8359 34.6574H16.9233L16.759 49.2993C16.7569 49.4359 16.7029 49.5665 16.608 49.6648C16.5131 49.7631 16.3845 49.8216 16.248 49.8286ZM14.5552 25.3082C12.5551 25.3251 10.573 25.6878 8.69664 26.3805C6.18255 27.293 3.77341 29.8482 2.19925 31.8284C1.49046 32.7145 1.10283 33.8147 1.09962 34.9494V45.5624C1.09962 46.4022 1.43324 47.2076 2.02709 47.8015C2.62093 48.3953 3.42636 48.7289 4.26618 48.7289H8.16735L15.7415 48.7563L15.9058 34.1144C15.907 33.9736 15.9638 33.839 16.0638 33.7398C16.1638 33.6407 16.2989 33.5851 16.4397 33.5851H18.1553C18.2438 33.5819 18.3318 33.6007 18.4114 33.6397C18.491 33.6787 18.5598 33.7367 18.6115 33.8087L29.1561 48.7289H37.4968L26.3135 33.2155C26.2639 33.1455 26.2315 33.0649 26.2188 32.9801C26.2062 32.8953 26.2136 32.8087 26.2405 32.7273C26.2692 32.6465 26.3163 32.5736 26.378 32.5142C26.4398 32.4548 26.5146 32.4106 26.5964 32.3851C32.8884 30.5144 35.9455 26.0839 35.9455 18.8519C35.9455 13.9378 34.5173 10.3287 31.7067 8.12486C28.896 5.92105 23.9956 4.7621 17.2792 4.7621H5.01904C4.50134 4.7621 3.98871 4.86407 3.51041 5.06218C3.03212 5.2603 2.59753 5.55069 2.23146 5.91676C1.86539 6.28283 1.57501 6.71741 1.37689 7.1957C1.17878 7.674 1.07681 8.18663 1.07681 8.70433V19.4086C2.73766 17.7751 4.88672 15.9728 6.97191 15.1196C10.3301 13.7507 14.5233 13.8466 16.0564 13.9378V8.33019C16.0501 8.22191 16.077 8.11429 16.1335 8.02168C16.1899 7.92906 16.2732 7.85582 16.3723 7.81173C16.4714 7.76763 16.5816 7.75477 16.6881 7.77484C16.7947 7.79492 16.8927 7.84698 16.9689 7.9241L29.7903 19.1759C29.8483 19.226 29.8947 19.288 29.9266 19.3577C29.9585 19.4274 29.975 19.5031 29.975 19.5797C29.975 19.6563 29.9585 19.732 29.9266 19.8017C29.8947 19.8714 29.8483 19.9334 29.7903 19.9835L16.5035 31.5319C16.4278 31.6083 16.3307 31.66 16.2251 31.6803C16.1194 31.7006 16.0101 31.6885 15.9115 31.6456C15.8128 31.6026 15.7294 31.5309 15.6722 31.4398C15.615 31.3487 15.5867 31.2424 15.591 31.1349L15.5225 25.3493C15.299 25.3265 14.9568 25.3082 14.5552 25.3082Z" fill="white"/>
<path d="M42.7303 16.7302C42.7345 14.8348 42.5015 12.9463 42.0368 11.1088C41.4981 9.45444 40.8236 7.84743 40.02 6.30423C39.9454 6.15942 39.9294 5.99146 39.9753 5.83516C40.0212 5.67886 40.1254 5.5462 40.2664 5.46468L49.5517 0.0942989C49.6287 0.046818 49.715 0.0163747 49.8048 0.00501527C49.8946 -0.00634416 49.9858 0.00164635 50.0722 0.0284432C50.1586 0.05524 50.2384 0.100224 50.306 0.160377C50.3736 0.220531 50.4275 0.294454 50.4642 0.377188C51.0461 1.71937 51.4806 3.12074 51.76 4.55669C52.0584 6.01112 52.246 7.48608 52.3213 8.96888L50.0855 9.27459L49.0817 4.37418C49.0647 4.27641 49.0249 4.18401 48.9657 4.1044C48.9064 4.02479 48.8293 3.9602 48.7405 3.91582C48.6518 3.87144 48.5538 3.84851 48.4546 3.84887C48.3553 3.84923 48.2576 3.87288 48.1691 3.9179L43.4832 6.29967C43.3572 6.36402 43.2561 6.46838 43.1958 6.59638C43.1355 6.72437 43.1195 6.86876 43.1501 7.00689C43.3907 8.20895 43.5159 9.43123 43.5242 10.6571C43.5221 12.7072 43.2552 14.7484 42.7303 16.7302Z" fill="#4AB138"/>
<path d="M52.9625 16.0944C53.3745 15.2133 53.1589 14.242 52.481 13.925C51.803 13.608 50.9194 14.0653 50.5074 14.9464C50.0954 15.8275 50.311 16.7988 50.989 17.1158C51.6669 17.4328 52.5505 16.9755 52.9625 16.0944Z" fill="#4AB138"/>
<path d="M40.1569 27.0788C40.1569 27.0788 44.5007 26.8004 50.3228 23.5518C53.2612 21.9092 56.227 19.1761 57.4042 16.954C59.973 12.1129 60.0004 10.2969 60.2194 7.68244C60.2742 6.99803 59.5395 5.98965 58.8506 6.04441L49.3828 6.78814C49.1501 6.80777 48.9295 6.90039 48.7526 7.05279C48.5756 7.20519 48.4512 7.40958 48.3973 7.63681C47.8908 9.77675 46.4353 15.7357 45.4132 18.0445C44.4476 20.1787 43.0868 22.1108 41.4026 23.7388C40.2801 24.8886 36.6253 27.389 36.6253 27.389C39.4592 26.5093 42.08 25.0521 44.3227 23.1092C48.8125 19.0757 50.2041 12.2498 50.5007 10.452C50.5198 10.324 50.5815 10.2061 50.6759 10.1175C50.7703 10.0289 50.8919 9.97475 51.0209 9.96383L55.8528 9.50755C56.227 9.47105 56.6559 9.81782 56.6969 10.4612C56.7882 11.903 56.2179 14.8186 54.2148 17.6886C52.0612 20.773 49.6201 21.9 47.7767 23.1046C45.8376 24.3639 40.1569 27.0788 40.1569 27.0788Z" fill="#4AB138"/>
<path d="M114.936 20.6499C117.111 22.4751 118.198 25.2751 118.198 29.05C118.198 32.8249 117.09 35.5976 114.872 37.3679C112.649 39.1292 109.243 40.0083 104.656 40.0052H99.1079V49.1718H93.8288V17.9214H104.56C109.303 17.9214 112.761 18.8309 114.936 20.6499ZM111.204 33.5443C112.262 32.4249 112.792 30.7854 112.792 28.6257C112.792 26.466 112.121 24.945 110.779 24.0629C109.438 23.1686 107.336 22.7214 104.474 22.7214H99.1079V35.228H105.231C108.151 35.228 110.141 34.6668 111.199 33.5443H111.204Z" fill="#3A3A3A"/>
<path d="M140.615 25.4178H146.574V49.1716H140.615V46.6621C139.604 47.6645 138.418 48.4732 137.116 49.0484C135.909 49.545 134.615 49.7947 133.31 49.783C130.244 49.783 127.592 48.5921 125.353 46.2104C123.114 43.8286 121.995 40.8719 121.995 37.3403C121.995 33.6719 123.078 30.6665 125.243 28.3243C126.228 27.2037 127.443 26.3091 128.805 25.7019C130.168 25.0947 131.645 24.7892 133.137 24.8064C134.515 24.7974 135.88 25.0723 137.148 25.614C138.449 26.1923 139.627 27.0166 140.615 28.0414V25.4178ZM134.351 30.3091C133.491 30.2878 132.636 30.4511 131.844 30.788C131.052 31.1249 130.342 31.6275 129.761 32.262C128.573 33.6737 127.925 35.4606 127.931 37.3051C127.937 39.1496 128.596 40.9323 129.793 42.3366C130.368 42.9737 131.072 43.4808 131.859 43.8238C132.646 44.1669 133.497 44.3381 134.355 44.3259C135.226 44.349 136.091 44.1863 136.893 43.8488C137.696 43.5113 138.417 43.0067 139.009 42.3685C140.241 41.0696 140.857 39.3647 140.857 37.2536C140.896 36.3365 140.753 35.4207 140.435 34.5592C140.118 33.6977 139.634 32.9077 139.009 32.2346C138.411 31.6058 137.687 31.1096 136.884 30.7779C136.082 30.4462 135.219 30.2865 134.351 30.3091Z" fill="white"/>
<path d="M149.964 25.4177H156.056L162.225 40.3197L169.032 25.4177H175.165L160.285 57.859H154.107L158.994 47.3966L149.964 25.4177Z" fill="white"/>
</svg>
