<svg width="287" height="95" viewBox="0 0 287 95" fill="none" xmlns="http://www.w3.org/2000/svg">
<path d="M171.019 87.2193C189.154 87.2193 203.854 72.5185 203.854 54.3841C203.854 36.2497 189.154 21.5488 171.019 21.5488C152.885 21.5488 138.184 36.2497 138.184 54.3841C138.184 72.5185 152.885 87.2193 171.019 87.2193Z" fill="#FAEF59"/>
<path d="M90.17 65.0336V46.2056H97.4908V80.9811H90.17V74.6379C89.0349 76.7161 87.3612 78.4503 85.3246 79.6583C83.2879 80.8664 80.9636 81.5038 78.5956 81.5034C74.6703 81.5034 71.4987 80.3045 69.0808 77.9065C66.663 75.5085 65.454 72.0434 65.454 67.5112V46.2056H72.7748V65.2948C72.7748 71.6977 75.434 74.8991 80.7523 74.8991C83.1939 74.9336 85.5564 74.034 87.3566 72.3842C89.2322 70.7076 90.17 68.2574 90.17 65.0336Z" fill="white"/>
<path d="M125.08 45.6752C127.293 45.6432 129.49 46.0553 131.54 46.8872C133.591 47.7191 135.455 48.9538 137.02 50.5183C140.323 53.7422 141.978 58.0356 141.982 63.3987C141.987 68.7618 140.343 73.1199 137.05 76.4731C135.584 78.0555 133.808 79.3184 131.831 80.1826C129.855 81.0467 127.722 81.4937 125.565 81.4954C121.182 81.4954 117.249 79.5775 113.767 75.7418V80.9656H106.446V32.459H113.767V52.2646C116.637 47.8716 120.408 45.6752 125.08 45.6752ZM113.632 63.6599C113.514 66.6591 114.587 69.5832 116.617 71.7941C117.544 72.8125 118.676 73.622 119.94 74.1688C121.203 74.7156 122.569 74.9873 123.946 74.9657C125.344 74.9754 126.731 74.7028 128.022 74.1643C129.313 73.6258 130.483 72.8323 131.46 71.8314C132.527 70.7689 133.362 69.497 133.913 68.0958C134.464 66.6945 134.719 65.1944 134.662 63.6898C134.711 62.1673 134.459 60.65 133.921 59.2248C133.384 57.7996 132.57 56.4945 131.527 55.3839C130.578 54.3337 129.417 53.4966 128.12 52.9281C126.823 52.3595 125.421 52.0723 124.005 52.0855C122.608 52.0652 121.223 52.3498 119.947 52.9195C118.671 53.4892 117.535 54.3302 116.617 55.3839C114.597 57.6574 113.528 60.6204 113.632 63.6599Z" fill="#4AB138"/>
<path d="M63.0735 80.5777H47.2603L29.6562 55.8095H26.8503L26.5741 80.6225L13.358 80.5777H6.94017C5.33367 80.5758 3.79354 79.9367 2.65757 78.8008C1.5216 77.6648 0.882555 76.1246 0.88058 74.5181V57.1603C0.886396 55.1073 1.58593 53.1165 2.86562 51.5111C5.70139 47.9515 9.67893 43.8471 13.8878 42.3172C20.9922 39.7427 26.2906 40.6755 26.2906 40.6755L26.41 50.9141L48.1036 32.0189L27.1413 13.6237V23.7355C27.1413 23.7355 18.3206 22.8474 11.7386 25.534C7.73867 27.1683 3.52979 31.0712 0.88058 33.8846V14.2282C0.87665 13.2633 1.0633 12.3072 1.42982 11.4146C1.79634 10.5221 2.3355 9.7107 3.01638 9.02704C3.69726 8.34339 4.50646 7.80093 5.39751 7.43079C6.28856 7.06064 7.24394 6.87011 8.20881 6.87012H28.2831C39.5217 6.87012 47.5663 8.7681 52.417 12.564C57.2676 16.36 59.6929 22.437 59.6929 30.7951C59.6929 42.9491 54.3871 50.6081 43.7753 53.7723L63.0735 80.5777Z" fill="white"/>
<path d="M26.5742 81.3689L6.94018 81.3242C5.13576 81.3222 3.40582 80.6045 2.12991 79.3286C0.853991 78.0527 0.136308 76.3227 0.134332 74.5183V57.1604C0.139951 54.9389 0.897476 52.7847 2.28355 51.0486C4.99246 47.6382 9.16402 43.2353 13.6341 41.6159C20.8429 39.0041 26.1936 39.8996 26.4174 39.9369C26.5927 39.9671 26.7513 40.0589 26.8649 40.1957C26.9784 40.3325 27.0394 40.5053 27.0368 40.6831L27.1413 49.3024L46.9395 32.0191L27.8577 15.2657V23.7357C27.8575 23.8398 27.8354 23.9427 27.793 24.0378C27.7506 24.133 27.6888 24.2181 27.6115 24.2879C27.534 24.3573 27.4428 24.4098 27.3439 24.4419C27.2449 24.4741 27.1403 24.4851 27.0368 24.4745C26.9473 24.4745 18.3206 23.6461 11.9923 26.2207C8.16404 27.7878 4.11187 31.534 1.39551 34.4295C1.29248 34.5383 1.15908 34.6136 1.01266 34.6456C0.866253 34.6775 0.713612 34.6646 0.57462 34.6086C0.435768 34.5533 0.316722 34.4576 0.232898 34.3339C0.149074 34.2101 0.104342 34.064 0.104487 33.9146V14.2284C0.101533 13.1633 0.30914 12.1081 0.715374 11.1235C1.12161 10.1389 1.71845 9.24432 2.47159 8.49117C3.22474 7.73803 4.11933 7.14118 5.10393 6.73494C6.08852 6.32871 7.14371 6.1211 8.20882 6.12405H28.2831C39.6411 6.12405 47.917 8.09417 52.9095 11.9747C57.9019 15.8552 60.4691 22.2282 60.4691 30.7952C60.4691 42.8771 55.2453 50.7427 45.0141 54.1754L63.6705 80.1078C63.7519 80.2192 63.8008 80.351 63.8118 80.4885C63.8229 80.626 63.7955 80.7639 63.7329 80.8868C63.6703 81.0098 63.5748 81.1129 63.4571 81.1849C63.3394 81.2568 63.204 81.2947 63.066 81.2943H47.2603C47.1407 81.295 47.0226 81.2668 46.9161 81.2123C46.8096 81.1577 46.7178 81.0784 46.6484 80.9809L29.2756 56.5261H27.5891L27.3204 80.6003C27.3234 80.7002 27.3063 80.7996 27.2702 80.8928C27.234 80.9859 27.1795 81.0708 27.1099 81.1425C27.0403 81.2142 26.957 81.2712 26.865 81.3101C26.773 81.349 26.6741 81.369 26.5742 81.3689ZM23.8055 41.2652C20.5196 41.2915 17.2629 41.8847 14.1789 43.0189C10.0371 44.5114 6.08199 48.7203 3.49248 51.974C2.31649 53.4476 1.67229 55.2751 1.66416 57.1604V74.5183C1.6681 75.9263 2.22916 77.2755 3.22475 78.2711C4.22034 79.2667 5.56952 79.8277 6.97749 79.8317H13.358L25.8801 79.8764L26.1413 55.7948C26.1413 55.5969 26.2199 55.4071 26.3599 55.2671C26.4998 55.1272 26.6897 55.0485 26.8876 55.0485H29.6935C29.8132 55.0479 29.9312 55.076 30.0377 55.1306C30.1442 55.1851 30.236 55.2645 30.3054 55.362L47.6857 79.8317H61.6481L43.2082 54.2426C43.1374 54.1462 43.0908 54.0342 43.0724 53.916C43.0539 53.7978 43.0642 53.677 43.1022 53.5636C43.1403 53.4502 43.205 53.3476 43.291 53.2645C43.3769 53.1814 43.4816 53.1201 43.5962 53.0859C53.9169 50.0038 58.9542 42.6906 58.9542 30.8251C58.9542 22.7432 56.6035 16.803 51.9618 13.1762C47.32 9.54936 39.3053 7.61656 28.2831 7.61656H8.20882C6.46378 7.61854 4.79077 8.31263 3.55684 9.54656C2.32291 10.7805 1.62882 12.4535 1.62684 14.1985V32.0191C4.3656 29.3027 7.96255 26.2356 11.455 24.8103C17.0295 22.5715 24.022 22.7506 26.3801 22.8999V13.6239C26.3804 13.4804 26.4221 13.34 26.5002 13.2195C26.5783 13.0991 26.6895 13.0037 26.8204 12.9448C26.9509 12.886 27.0956 12.866 27.2372 12.8872C27.3788 12.9084 27.5113 12.9698 27.6189 13.0642L48.5961 31.4967C48.6757 31.5667 48.7395 31.6527 48.7833 31.7492C48.827 31.8457 48.8497 31.9505 48.8499 32.0564C48.8508 32.1636 48.8286 32.2698 48.7848 32.3676C48.7411 32.4655 48.6767 32.5528 48.5961 32.6236L26.9025 51.5113C26.7956 51.6042 26.6644 51.6648 26.5243 51.6859C26.3843 51.7071 26.2411 51.6879 26.1115 51.6307C25.9803 51.5735 25.8683 51.4797 25.7889 51.3606C25.7096 51.2416 25.6661 51.1021 25.6637 50.959L25.5518 41.3771C25.1413 41.3025 24.5518 41.2652 23.8055 41.2652Z" fill="white"/>
<path d="M26.5741 81.4963H6.94016C5.10073 81.4923 3.33776 80.7599 2.03708 79.4592C0.736399 78.1585 0.00394307 76.3955 0 74.5561V57.1609C0.00790703 54.9097 0.775735 52.7272 2.17906 50.967C4.90289 47.5416 9.08938 43.1238 13.5893 41.497C20.828 38.8702 26.2159 39.7731 26.4398 39.8105C26.645 39.8436 26.832 39.9476 26.9683 40.1044C27.1047 40.2612 27.1817 40.4609 27.1861 40.6687L27.2831 49.0043L46.7827 32.0195L28.0293 15.6019V23.7361C28.0292 23.858 28.0039 23.9785 27.9551 24.0902C27.9063 24.2019 27.8351 24.3024 27.7458 24.3854C27.654 24.4673 27.5464 24.5295 27.4295 24.568C27.3127 24.6065 27.1892 24.6206 27.0667 24.6092C26.9771 24.6092 18.3803 23.7809 12.0819 26.348C8.28342 27.9002 4.24619 31.6315 1.53728 34.4897C1.41356 34.605 1.25946 34.6826 1.09311 34.7134C0.92677 34.7441 0.755107 34.7267 0.598316 34.6632C0.441525 34.5997 0.306137 34.4928 0.208074 34.3549C0.11001 34.2171 0.053353 34.0541 0.0447735 33.8852V14.2288C0.0447735 12.0517 0.909621 9.96378 2.44907 8.42433C3.98852 6.88488 6.07647 6.02002 8.25358 6.02002H28.2831C39.6709 6.02002 47.9767 7.9976 52.9617 11.9005C57.9467 15.8034 60.5661 22.2212 60.5661 30.8255C60.5661 42.9074 55.3945 50.7879 45.1932 54.2729L63.775 80.0634C63.8695 80.1946 63.9261 80.3492 63.9386 80.5104C63.9511 80.6716 63.9189 80.8331 63.8457 80.9772C63.7725 81.1214 63.661 81.2425 63.5235 81.3275C63.3859 81.4125 63.2277 81.458 63.066 81.459H47.2603C47.1148 81.4633 46.9705 81.4315 46.8402 81.3664C46.71 81.3013 46.5979 81.2049 46.5141 81.0858L29.1711 56.6833H27.6786L27.4099 80.6306C27.4065 80.854 27.3182 81.0677 27.163 81.2285C27.0078 81.3892 26.7973 81.4849 26.5741 81.4963ZM23.8055 41.3925C20.5343 41.42 17.2925 42.0133 14.2236 43.1462C10.1118 44.6387 6.17152 48.8177 3.59694 52.0565C2.43769 53.5057 1.80372 55.305 1.79847 57.1609V74.5188C1.79847 75.8923 2.34411 77.2096 3.31537 78.1809C4.28662 79.1521 5.60392 79.6978 6.97748 79.6978H13.358L25.7458 79.7426L26.0145 55.7952C26.0164 55.565 26.1093 55.3448 26.2728 55.1827C26.4363 55.0205 26.6573 54.9296 26.8876 54.9296H29.6935C29.8384 54.9244 29.9823 54.9551 30.1125 55.0188C30.2426 55.0826 30.3551 55.1776 30.4397 55.2953L47.6857 79.6978H61.3272L43.0365 54.3251C42.9555 54.2107 42.9025 54.0788 42.8817 53.9401C42.861 53.8014 42.8731 53.6598 42.9171 53.5266C42.9641 53.3945 43.0411 53.2752 43.1421 53.1781C43.2431 53.0809 43.3654 53.0086 43.4992 52.9669C53.7901 49.9073 58.79 42.6611 58.79 30.833C58.79 22.7958 56.4542 16.893 51.8573 13.2885C47.2603 9.68414 39.2456 7.78864 28.2607 7.78864H8.20881C7.36209 7.78864 6.52366 7.95542 5.74139 8.27944C4.95913 8.60347 4.24835 9.0784 3.64963 9.67712C3.05091 10.2758 2.57598 10.9866 2.25195 11.7689C1.92793 12.5511 1.76116 13.3896 1.76116 14.2363V31.7434C4.47753 29.0718 7.99239 26.1241 11.4028 24.7286C16.8952 22.4899 23.7533 22.6466 26.2607 22.7958V13.6244C26.2505 13.4473 26.2945 13.2713 26.3868 13.1198C26.4791 12.9683 26.6153 12.8485 26.7774 12.7764C26.9395 12.7043 27.1197 12.6832 27.294 12.7161C27.4683 12.7489 27.6285 12.8341 27.7532 12.9602L48.723 31.3628C48.8178 31.4448 48.8938 31.5462 48.9459 31.6602C48.998 31.7741 49.025 31.898 49.025 32.0233C49.025 32.1486 48.998 32.2724 48.9459 32.3864C48.8938 32.5003 48.8178 32.6017 48.723 32.6837L26.992 51.5714C26.8682 51.6964 26.7094 51.781 26.5366 51.8142C26.3638 51.8474 26.185 51.8276 26.0237 51.7574C25.8623 51.6872 25.726 51.5699 25.6324 51.4209C25.5389 51.2718 25.4926 51.098 25.4995 50.9222L25.3876 41.4597C25.0219 41.4224 24.4622 41.3925 23.8055 41.3925Z" fill="white"/>
<path d="M69.8868 27.3627C69.8936 24.2628 69.5126 21.1741 68.7525 18.1688C67.8715 15.463 66.7682 12.8347 65.454 10.3108C65.332 10.0739 65.3058 9.79922 65.3808 9.54359C65.4559 9.28795 65.6264 9.07099 65.857 8.93765L81.0433 0.154229C81.1693 0.0765723 81.3105 0.0267813 81.4573 0.00820262C81.6042 -0.0103761 81.7533 0.00269266 81.8947 0.0465197C82.0361 0.0903468 82.1664 0.16392 82.277 0.262302C82.3876 0.360685 82.4758 0.481589 82.5358 0.616903C83.4875 2.81208 84.1981 5.10407 84.6552 7.4526C85.1431 9.83137 85.45 12.2437 85.5731 14.6689L81.9164 15.1689L80.2747 7.15411C80.2468 6.99421 80.1818 6.84307 80.0849 6.71287C79.988 6.58267 79.8619 6.47703 79.7167 6.40445C79.5715 6.33186 79.4113 6.29436 79.249 6.29495C79.0867 6.29554 78.9268 6.33421 78.7822 6.40785L71.1181 10.3033C70.912 10.4086 70.7467 10.5792 70.6481 10.7886C70.5495 10.9979 70.5233 11.2341 70.5734 11.46C70.9668 13.426 71.1717 15.4251 71.1853 17.43C71.1817 20.783 70.7453 24.1215 69.8868 27.3627Z" fill="#4AB138"/>
<path d="M86.6219 26.3234C87.2958 24.8822 86.9431 23.2937 85.8343 22.7752C84.7254 22.2567 83.2803 23.0047 82.6064 24.4458C81.9326 25.8869 82.2852 27.4755 83.3941 27.994C84.5029 28.5124 85.9481 27.7645 86.6219 26.3234Z" fill="#4AB138"/>
<path d="M65.6779 44.2882C65.6779 44.2882 72.7823 43.833 82.3045 38.5196C87.1104 35.8331 91.961 31.363 93.8863 27.7288C98.0878 19.811 98.1325 16.8409 98.4907 12.5649C98.5803 11.4455 97.3788 9.79627 96.252 9.88582L80.7672 11.1022C80.3865 11.1343 80.0258 11.2858 79.7363 11.5351C79.4469 11.7843 79.2435 12.1186 79.1553 12.4903C78.3269 15.9902 75.9464 25.7363 74.2748 29.5123C72.6955 33.0029 70.4698 36.1629 67.7152 38.8256C65.8794 40.7062 59.9019 44.7956 59.9019 44.7956C64.5367 43.3569 68.8233 40.9735 72.4912 37.7958C79.8344 31.1989 82.1104 20.0349 82.5955 17.0946C82.6267 16.8852 82.7276 16.6924 82.882 16.5475C83.0364 16.4026 83.2352 16.314 83.4462 16.2962L91.3491 15.5499C91.961 15.4902 92.6625 16.0574 92.7296 17.1096C92.8789 19.4677 91.9461 24.2363 88.67 28.9303C85.1477 33.9749 81.1552 35.8182 78.1404 37.7883C74.9688 39.848 65.6779 44.2882 65.6779 44.2882Z" fill="#4AB138"/>
<path d="M187.982 33.7736C191.539 36.7586 193.317 41.3382 193.317 47.5122C193.317 53.6862 191.504 58.221 187.877 61.1164C184.24 63.997 178.671 65.4348 171.168 65.4298H162.094V80.422H153.46V29.311H171.012C178.768 29.311 184.424 30.7986 187.982 33.7736ZM181.877 54.8628C183.609 53.032 184.474 50.3504 184.474 46.8182C184.474 43.2859 183.377 40.7984 181.183 39.3556C178.989 37.893 175.552 37.1616 170.87 37.1616H162.094V57.6165H172.109C176.885 57.6165 180.138 56.6986 181.87 54.8628H181.877Z" fill="#3A3A3A"/>
<path d="M229.981 41.5719H239.727V80.4219H229.981V76.3175C228.327 77.957 226.387 79.2798 224.257 80.2205C222.284 81.0326 220.167 81.4411 218.033 81.4219C213.019 81.4219 208.68 79.4742 205.019 75.5788C201.357 71.6833 199.526 66.8476 199.526 61.0716C199.526 55.0717 201.297 50.1563 204.84 46.3255C206.45 44.4927 208.437 43.0296 210.665 42.0366C212.894 41.0435 215.31 40.5438 217.75 40.5719C220.004 40.5572 222.237 41.0069 224.309 41.8928C226.438 42.8387 228.364 44.1867 229.981 45.8629V41.5719ZM219.735 49.5718C218.328 49.537 216.93 49.804 215.635 50.355C214.34 50.9059 213.178 51.728 212.228 52.7657C210.286 55.0747 209.226 57.9972 209.235 61.014C209.245 64.0307 210.324 66.9464 212.28 69.243C213.221 70.2851 214.373 71.1144 215.66 71.6755C216.947 72.2366 218.339 72.5166 219.742 72.4967C221.166 72.5344 222.581 72.2684 223.893 71.7164C225.206 71.1643 226.386 70.339 227.354 69.2953C229.369 67.1709 230.376 64.3824 230.376 60.9298C230.44 59.4297 230.205 57.9319 229.687 56.5229C229.168 55.114 228.375 53.8218 227.354 52.721C226.375 51.6925 225.191 50.8809 223.878 50.3385C222.566 49.796 221.154 49.5349 219.735 49.5718Z" fill="white"/>
<path d="M245.272 41.5713H255.234L265.324 65.944L276.458 41.5713H286.487L262.152 94.63H252.048L260.04 77.5184L245.272 41.5713Z" fill="white"/>
</svg>
