<svg width="42" height="42" viewBox="0 0 42 42" fill="none" xmlns="http://www.w3.org/2000/svg">
<g clip-path="url(#clip0_75_52)">
<path d="M21.0002 41.1925C32.1508 41.1925 41.1901 32.1531 41.1901 21.0025C41.1901 9.85186 32.1508 0.8125 21.0002 0.8125C9.84954 0.8125 0.810181 9.85186 0.810181 21.0025C0.810181 32.1531 9.84954 41.1925 21.0002 41.1925Z" fill="white"/>
<path d="M20.9993 41.9999C16.1409 41.9998 11.4329 40.315 7.67735 37.2328C3.92184 34.1506 1.35122 29.8616 0.403473 25.0965C-0.544272 20.3315 0.189498 15.3852 2.47976 11.1005C4.77003 6.8158 8.47509 3.45776 12.9637 1.59853C17.4522 -0.260692 22.4466 -0.506073 27.0958 0.904202C31.745 2.31448 35.7614 5.29315 38.4606 9.33271C41.1599 13.3723 42.375 18.2228 41.8989 23.0578C41.4228 27.8928 39.285 32.4132 35.8497 35.8487C33.9041 37.805 31.5898 39.356 29.0407 40.4119C26.4916 41.4678 23.7584 42.0075 20.9993 41.9999ZM20.9993 1.62086C10.3142 1.62086 1.62104 10.314 1.62104 20.9991C1.62104 31.6842 10.3142 40.3808 20.9993 40.3808C31.6844 40.3808 40.381 31.6877 40.381 21.0026C40.381 10.3174 31.6853 1.62433 20.9993 1.62433V1.62086Z" fill="black"/>
<path d="M27.3049 31.5067C18.6204 31.3772 12.0263 25.7176 10.7452 18.0953C10.5282 16.8029 10.3375 15.4983 10.6577 14.1927C11.4452 11.0357 15.0914 9.51666 17.8889 11.1713C18.0501 11.2574 18.1882 11.3811 18.2914 11.5319C18.3947 11.6827 18.4601 11.8561 18.4821 12.0376C18.7901 13.8952 19.1305 15.7468 19.4552 17.6009C19.5427 18.1076 19.4412 18.3053 18.9704 18.5538C18.1986 18.9607 17.4312 19.3737 16.649 19.7596C16.4005 19.8821 16.3865 19.9889 16.4985 20.2225C17.613 22.5312 19.4778 24.3935 21.788 25.505C22.0452 25.6319 22.1292 25.5557 22.2403 25.33C22.6323 24.5512 23.0436 23.7821 23.4496 23.0103C23.6937 22.5474 23.8915 22.4477 24.406 22.5378C26.2742 22.8642 28.1397 23.2028 30.0105 23.5169C30.179 23.5386 30.3395 23.6013 30.478 23.6996C30.6166 23.7978 30.7289 23.9286 30.805 24.0804C31.7212 25.7255 31.7754 27.3959 30.8348 29.0295C29.8495 30.7455 28.2928 31.5085 27.3049 31.5067Z" fill="black"/>
<path d="M11.909 15.8907C11.8705 13.459 13.4543 11.828 15.5473 11.8997C15.6836 11.9062 15.8193 11.9222 15.9533 11.9479C17.0366 12.1412 17.0777 12.171 17.2746 13.2333C17.5152 14.5344 17.7305 15.8399 17.9746 17.1402C18.0219 17.3949 17.9624 17.5244 17.7235 17.6425C16.9062 18.0476 16.1012 18.4781 15.2944 18.9043C14.7694 19.1808 14.6697 19.4581 14.8963 20.0112C16.2695 23.3613 18.6306 25.7259 21.9796 27.1049C22.5466 27.3386 22.8292 27.2327 23.1171 26.6893C23.5362 25.893 23.9598 25.1003 24.3596 24.2952C24.4743 24.0642 24.5906 23.9802 24.854 24.0284C26.3836 24.3113 27.9148 24.5823 29.4479 24.8413C29.671 24.8789 29.7296 25.0163 29.7979 25.1799C30.8252 27.4856 29.1337 30.143 26.6014 30.0879C21.0888 29.9662 16.8511 27.5337 13.9495 22.8427C12.6669 20.7464 11.9628 18.3477 11.909 15.8907Z" fill="#FEFEFE"/>
</g>
<defs>
<clipPath id="clip0_75_52">
<rect width="42" height="41.9948" fill="white"/>
</clipPath>
</defs>
</svg>
