<svg width="32" height="32" viewBox="0 0 32 32" fill="none" xmlns="http://www.w3.org/2000/svg">
<g clip-path="url(#clip0_306_17)">
<path d="M15.9995 31.3836C24.4949 31.3836 31.3818 24.4967 31.3818 16.0013C31.3818 7.50597 24.4949 0.61911 15.9995 0.61911C7.50417 0.61911 0.61731 7.50597 0.61731 16.0013C0.61731 24.4967 7.50417 31.3836 15.9995 31.3836Z" fill="white"/>
<path d="M15.9988 31.9987C12.2973 31.9986 8.71041 30.715 5.84918 28.3668C2.98795 26.0185 1.02946 22.7508 0.307396 19.1204C-0.414667 15.49 0.144374 11.7216 1.88927 8.45719C3.63417 5.19279 6.45696 2.63438 9.87668 1.21788C13.2964 -0.198615 17.1015 -0.385564 20.6436 0.688889C24.1857 1.76334 27.2457 4.03272 29.3022 7.11036C31.3587 10.188 32.2844 13.8835 31.9217 17.5671C31.559 21.2508 29.9303 24.6948 27.313 27.3122C25.8307 28.8027 24.0675 29.9844 22.1254 30.7888C20.1833 31.5933 18.1009 32.0045 15.9988 31.9987ZM15.9988 1.23489C7.8581 1.23489 1.23503 7.85795 1.23503 15.9987C1.23503 24.1394 7.8581 30.7651 15.9988 30.7651C24.1396 30.7651 30.7653 24.1421 30.7653 16.0013C30.7653 7.8606 24.1402 1.23753 15.9988 1.23753V1.23489Z" fill="black"/>
<path d="M22.9338 9.64473C22.9171 9.70206 22.8898 9.81273 22.8518 9.9194C21.1082 14.8084 19.3642 19.6949 17.6197 24.579C17.521 24.8544 17.3743 25.0684 17.0477 25.0571C16.721 25.0457 16.5903 24.819 16.511 24.539C16.0936 23.0723 15.6683 21.6056 15.261 20.1349C15.1943 19.8989 15.1243 19.8916 14.9143 19.9729C13.8023 20.4036 12.6829 20.815 11.5662 21.2343C11.2995 21.3343 11.0422 21.3956 10.8162 21.157C10.6009 20.9303 10.6702 20.6796 10.7649 20.4283C11.1895 19.3016 11.6095 18.1736 12.0409 17.0496C12.1122 16.8649 12.0969 16.7975 11.8889 16.7402C10.4175 16.3322 8.95083 15.9082 7.48147 15.4929C7.20413 15.4142 6.97279 15.2928 6.94145 14.9708C6.91412 14.6922 7.07479 14.5042 7.43146 14.3768C9.45328 13.6559 11.4755 12.9348 13.4983 12.2134L22.0838 9.14672C22.5498 8.97738 22.9244 9.17472 22.9338 9.64473Z" fill="black"/>
<path d="M17.0957 22.6764C16.629 21.0417 16.1737 19.4036 15.6817 17.7763C15.559 17.3702 15.609 17.1189 15.925 16.8109C17.557 15.2195 19.1591 13.5968 20.7691 11.9828C20.845 11.8971 20.9154 11.8067 20.9798 11.7121L21.0598 11.7681L17.1624 22.6864L17.0957 22.6764Z" fill="#FEFEFE"/>
<path d="M20.2004 10.9524C20.185 11.1031 20.0937 11.1484 20.031 11.2104C18.3483 12.8967 16.6652 14.5827 14.9816 16.2685C14.8416 16.4092 14.7289 16.4538 14.5236 16.3945C12.7902 15.8898 11.0568 15.4025 9.30481 14.8471L20.2004 10.9524Z" fill="#FEFEFE"/>
<path d="M12.1156 19.8844C12.4489 18.9917 12.7669 18.159 13.0703 17.3203C13.137 17.1403 13.2076 17.1117 13.3843 17.1737C13.7456 17.2997 14.227 17.2937 14.4543 17.535C14.7023 17.7977 14.709 18.2824 14.8383 18.6637C14.8863 18.805 14.8643 18.8637 14.7257 18.9164C13.8716 19.2291 13.0203 19.5477 12.1156 19.8844Z" fill="#FEFEFE"/>
</g>
<defs>
<clipPath id="clip0_306_17">
<rect width="32" height="31.996" fill="white"/>
</clipPath>
</defs>
</svg>
