<svg width="168" height="168" viewBox="0 0 168 168" fill="none" xmlns="http://www.w3.org/2000/svg">
<g filter="url(#filter0_d_315_39)">
<circle cx="80" cy="80" r="69" fill="#FAEF59"/>
</g>
<g clip-path="url(#clip0_315_39)">
<path d="M58.9649 129.043C57.8234 128.231 57.7395 127.059 57.7665 125.795C57.8144 123.728 57.7425 121.66 57.7994 119.593C57.8174 118.886 57.5867 118.763 56.9485 118.781C55.3037 118.826 53.6528 118.808 52.005 118.781C49.6081 118.763 47.9962 117.163 47.9962 114.775C47.9962 90.1832 47.9962 65.5901 47.9962 40.996C47.9962 38.623 49.623 36.9962 52.0169 36.9962C70.6787 36.9962 89.3405 36.9962 108.002 36.9962C110.381 36.9962 111.987 38.641 111.987 41.0319C111.987 65.6001 111.987 90.1682 111.987 114.736C111.987 117.22 110.375 118.793 107.85 118.796C96.5282 118.796 85.2049 118.79 73.8796 118.778C73.1336 118.778 72.9418 118.952 72.9598 119.698C73.0167 121.945 72.9328 124.192 72.9987 126.436C73.0347 127.635 72.6572 128.533 71.5426 129.043H70.6438C70.1181 128.952 69.641 128.679 69.2955 128.273C68.133 127.035 67.0275 125.747 65.9519 124.438C65.5624 123.964 65.3347 123.839 64.8793 124.381C63.9085 125.546 62.8749 126.661 61.9041 127.829C61.4367 128.393 60.9723 128.905 60.2173 129.028L58.9649 129.043Z" fill="black"/>
<path d="M51.8171 77.858C51.8171 65.8455 51.8101 53.8351 51.7961 41.8267C51.7961 40.9878 52.0268 40.805 52.8357 40.808C70.9562 40.832 89.0767 40.832 107.197 40.808C107.958 40.808 108.204 40.9398 108.201 41.7728C108.135 65.8855 108.094 89.9932 108.078 114.096C108.078 114.836 107.85 114.965 107.179 114.962C96.0697 114.942 84.9581 114.942 73.8445 114.962C73.1104 114.962 73.0235 114.725 72.9636 114.063C72.8378 112.748 73.3291 111.795 74.1201 110.767C77.0174 107.01 76.9574 101.752 74.1201 97.902C72.7414 96.0441 70.8058 94.6747 68.5949 93.9931C66.384 93.3115 64.0133 93.3533 61.8278 94.1125C59.6423 94.8716 57.7562 96.3084 56.4439 98.2138C55.1316 100.119 54.4616 102.394 54.5315 104.706C54.6304 107.271 55.4663 109.59 57.228 111.477C58.1688 112.493 57.6655 113.62 57.7733 114.701C57.8003 114.965 57.4737 114.941 57.279 114.941C55.6311 114.941 53.9832 114.941 52.3384 114.941C51.9399 114.941 51.7991 114.785 51.832 114.408C51.85 114.198 51.832 113.988 51.832 113.778L51.8171 77.858Z" fill="#FEFEFE"/>
<path d="M72.3225 104.383C72.3284 105.773 71.9216 107.134 71.1536 108.293C70.3856 109.452 69.2909 110.357 68.0082 110.894C66.7254 111.431 65.3123 111.575 63.9477 111.308C62.583 111.041 61.3283 110.375 60.3424 109.394C59.3565 108.414 58.6836 107.163 58.4091 105.8C58.1345 104.437 58.2706 103.023 58.8001 101.737C59.3296 100.451 60.2287 99.3516 61.3836 98.5772C62.5384 97.8028 63.8971 97.3884 65.2876 97.3867C67.1454 97.3906 68.9266 98.1276 70.244 99.4377C71.5613 100.748 72.3083 102.525 72.3225 104.383Z" fill="#FEFEFE"/>
<path d="M69.1526 121.886C68.3556 120.963 67.7414 120.238 67.1122 119.522C65.9527 118.201 64.7932 118.201 63.6517 119.522L61.89 121.553C61.8089 121.615 61.7238 121.671 61.6353 121.721C61.6353 119.923 61.6353 118.213 61.6353 116.499C61.6353 115.9 61.4406 115.07 61.7462 114.776C62.0997 114.441 62.8218 114.989 63.4 115.076C65.1112 115.386 66.8719 115.284 68.5354 114.776C68.8889 114.662 69.1615 114.545 69.1556 115.115C69.1526 117.29 69.1526 119.462 69.1526 121.886Z" fill="#FEFEFE"/>
<path d="M79.9895 56.0223H64.182C63.9136 56.0373 63.6445 56.0373 63.3761 56.0223C62.1566 55.8875 61.4376 55.1504 61.4495 54.0688C61.4645 53.0352 62.1686 52.3281 63.3491 52.1843C63.6173 52.1643 63.8863 52.1593 64.155 52.1693C74.7213 52.1693 85.2886 52.1693 95.8569 52.1693C96.2743 52.166 96.6909 52.2052 97.1003 52.2862C97.5152 52.3651 97.8883 52.5896 98.1525 52.9191C98.4167 53.2487 98.5546 53.6617 98.5414 54.0838C98.559 54.5062 98.4272 54.9212 98.1691 55.256C97.911 55.5908 97.5432 55.8239 97.1303 55.9144C96.7222 56.0109 96.3029 56.0512 95.8839 56.0343L79.9895 56.0223Z" fill="black"/>
<path d="M79.9895 85.2345H95.8839C96.1843 85.2275 96.4848 85.2435 96.7827 85.2824C97.9243 85.4592 98.5564 86.1513 98.5474 87.1789C98.5384 88.2066 97.8973 88.8927 96.7498 89.0665C96.4513 89.0987 96.1509 89.1097 95.8509 89.0994H64.155C63.7078 89.1196 63.2599 89.0763 62.8248 88.9706C62.4162 88.8645 62.0565 88.6211 61.8061 88.2812C61.5557 87.9414 61.4298 87.5257 61.4496 87.104C61.4529 86.697 61.5944 86.3031 61.8507 85.9869C62.1071 85.6706 62.4632 85.4508 62.8607 85.3633C63.2686 85.2778 63.6844 85.2357 64.1011 85.2374C69.3962 85.2315 74.6924 85.2305 79.9895 85.2345Z" fill="black"/>
<path d="M79.9835 63.213H96.0577C96.6209 63.213 97.1842 63.1771 97.6965 63.5336C98.0015 63.726 98.2425 64.0048 98.3886 64.3345C98.5348 64.6642 98.5797 65.03 98.5175 65.3852C98.4801 65.7285 98.343 66.0533 98.1231 66.3195C97.9032 66.5857 97.6101 66.7817 97.2801 66.8833C96.8787 67.0054 96.4579 67.0511 96.0397 67.0181H63.9813C63.533 67.0506 63.0826 66.9977 62.654 66.8623C62.2559 66.719 61.9194 66.443 61.7011 66.0806C61.4828 65.7182 61.3961 65.2917 61.4555 64.8729C61.4918 64.4676 61.6644 64.0866 61.9452 63.7922C62.226 63.4978 62.5984 63.3073 63.0015 63.252C63.3585 63.2114 63.718 63.1964 64.0771 63.207L79.9835 63.213Z" fill="black"/>
<path d="M80.0135 78.0438C74.6205 78.0438 69.2325 78.0438 63.8495 78.0438C63.0795 78.0438 62.3514 77.9719 61.8421 77.2947C61.6564 77.0595 61.5301 76.7831 61.4739 76.4888C61.4176 76.1944 61.433 75.8909 61.5188 75.6038C61.6046 75.3167 61.7583 75.0545 61.9668 74.8393C62.1754 74.6241 62.4327 74.4623 62.7169 74.3675C63.0297 74.2672 63.3562 74.2167 63.6847 74.2177C74.5506 74.2177 85.4165 74.2177 96.2824 74.2177C97.7175 74.2177 98.5684 74.9847 98.5415 76.1922C98.5453 76.6306 98.3887 77.0554 98.1012 77.3865C97.8137 77.7175 97.4152 77.9321 96.9805 77.9898C96.6239 78.0358 96.2643 78.0549 95.9049 78.0468L80.0135 78.0438Z" fill="black"/>
<path d="M89.0797 100.101C86.6259 100.101 84.1721 100.101 81.7213 100.101C80.5228 100.101 79.8068 99.5559 79.609 98.5761C79.5478 98.3221 79.5418 98.0579 79.5915 97.8013C79.6412 97.5448 79.7454 97.3019 79.8971 97.0891C80.0488 96.8764 80.2444 96.6986 80.4708 96.568C80.6971 96.4374 80.9488 96.3569 81.2089 96.332C81.7162 96.2915 82.2253 96.2795 82.734 96.2961C87.2521 96.2961 91.7692 96.2961 96.2854 96.2961C97.6426 96.2961 98.4276 96.8953 98.5265 97.9829C98.6403 99.2233 97.8194 100.08 96.4292 100.098C93.9874 100.116 91.5335 100.101 89.0797 100.101Z" fill="black"/>
</g>
<defs>
<filter id="filter0_d_315_39" x="0" y="0" width="168" height="168" filterUnits="userSpaceOnUse" color-interpolation-filters="sRGB">
<feFlood flood-opacity="0" result="BackgroundImageFix"/>
<feColorMatrix in="SourceAlpha" type="matrix" values="0 0 0 0 0 0 0 0 0 0 0 0 0 0 0 0 0 0 127 0" result="hardAlpha"/>
<feOffset dx="4" dy="4"/>
<feGaussianBlur stdDeviation="7.5"/>
<feComposite in2="hardAlpha" operator="out"/>
<feColorMatrix type="matrix" values="0 0 0 0 0 0 0 0 0 0 0 0 0 0 0 0 0 0 0.25 0"/>
<feBlend mode="normal" in2="BackgroundImageFix" result="effect1_dropShadow_315_39"/>
<feBlend mode="normal" in="SourceGraphic" in2="effect1_dropShadow_315_39" result="shape"/>
</filter>
<clipPath id="clip0_315_39">
<rect width="64" height="92.0436" fill="white" transform="translate(48 37)"/>
</clipPath>
</defs>
</svg>
