<svg width="168" height="168" viewBox="0 0 168 168" fill="none" xmlns="http://www.w3.org/2000/svg">
<g filter="url(#filter0_d_315_38)">
<circle cx="80" cy="80" r="69" fill="#FAEF59"/>
</g>
<g clip-path="url(#clip0_315_38)">
<path d="M81 112.849H47.362C42.8646 112.849 40.0068 109.994 40.0045 105.505C40.0045 104.822 40.0045 104.139 40.0045 103.456C40.025 102.452 40.5305 101.937 41.5325 101.923C42.6711 101.908 43.8096 101.903 44.9482 101.923C45.349 101.923 45.5311 101.828 45.4719 101.407C45.4594 101.237 45.4594 101.066 45.4719 100.896V57.3597C45.4719 52.8578 48.3229 50 52.8135 50H109.157C113.656 50 116.517 52.8533 116.517 57.3438C116.517 71.8856 116.511 86.4275 116.501 100.969C116.501 101.721 116.646 102.001 117.448 101.937C118.438 101.86 119.438 101.908 120.436 101.921C121.433 101.935 121.973 102.445 121.975 103.44C121.975 104.606 122.064 105.79 121.895 106.933C121.369 110.492 118.584 112.842 114.977 112.854C103.654 112.855 92.328 112.854 81 112.849Z" fill="black"/>
<path d="M80.9932 101.919C70.3483 101.919 59.7034 101.925 49.0585 101.937C48.348 101.937 48.1841 101.773 48.1841 101.065C48.2099 86.4624 48.216 71.8606 48.2023 57.2596C48.2023 54.3744 49.8623 52.7326 52.7703 52.7326H109.214C112.122 52.7326 113.784 54.3767 113.784 57.2573C113.784 71.8614 113.79 86.4632 113.802 101.063C113.802 101.773 113.638 101.939 112.93 101.937C102.285 101.91 91.6396 101.904 80.9932 101.919Z" fill="#FEFEFE"/>
<path d="M81.0341 104.652C93.4719 104.652 105.91 104.645 118.35 104.633C119.09 104.633 119.283 104.79 119.261 105.544C119.208 108.454 117.598 110.114 114.706 110.114H47.2664C44.2537 110.114 42.3955 108.022 42.728 105.034C42.7599 104.745 42.8236 104.62 43.122 104.647C43.3201 104.665 43.5205 104.647 43.7208 104.647L81.0341 104.652Z" fill="#FEFEFE"/>
<path d="M81.0136 99.1863H52.8431C51.3401 99.1863 50.9348 98.7765 50.9348 97.2576V57.3916C50.9348 55.8728 51.3379 55.4651 52.8431 55.4651H109.184C110.63 55.4651 111.051 55.891 111.051 57.3506V97.3009C111.051 98.7582 110.628 99.1863 109.184 99.1863H81.0136Z" fill="black"/>
<path d="M81.0797 58.1977C89.8741 58.1977 98.6707 58.1977 107.465 58.1795C108.175 58.1795 108.337 58.3457 108.337 59.0539C108.313 71.2366 108.313 83.4186 108.337 95.5998C108.337 96.3125 108.169 96.4719 107.463 96.4719C89.8149 96.4492 72.1677 96.4492 54.5214 96.4719C53.8109 96.4719 53.6492 96.3057 53.6492 95.5975C53.675 83.4148 53.675 71.2328 53.6492 59.0516C53.6492 58.3389 53.8177 58.1772 54.5237 58.1795C63.3749 58.2068 72.2262 58.1977 81.0797 58.1977Z" fill="#FEFEFE"/>
<path d="M80.9818 92.3549C72.8091 92.38 65.9981 85.6328 65.964 77.4852C65.9321 69.1417 72.6155 62.3148 80.8315 62.2966C82.8193 62.2758 84.7914 62.6496 86.6338 63.3963C88.4761 64.143 90.152 65.2477 91.5644 66.6466C92.9769 68.0455 94.0977 69.7106 94.8622 71.5457C95.6266 73.3808 96.0194 75.3492 96.0177 77.3371C96.0496 85.585 89.3047 92.3276 80.9818 92.3549Z" fill="black"/>
<path d="M90.2885 85.2456C89.143 83.4363 87.512 81.9852 85.5816 81.058C88.929 77.6878 88.1457 73.3157 85.6727 70.9748C84.3915 69.7813 82.7024 69.1228 80.9514 69.1342C79.2004 69.1456 77.52 69.8261 76.2545 71.0363C73.8521 73.3362 73.0665 77.7037 76.4139 81.0557C74.4755 81.9693 72.8396 83.4194 71.7002 85.2343C67.9702 81.2743 67.2597 73.7415 72.2603 68.6657C73.4022 67.5117 74.7615 66.5955 76.2597 65.9703C77.7579 65.345 79.3652 65.0231 80.9886 65.0231C82.6121 65.0231 84.2194 65.345 85.7176 65.9703C87.2158 66.5955 88.5751 67.5117 89.7169 68.6657C94.7107 73.7073 94.039 81.2219 90.2885 85.2456Z" fill="#FEFEFE"/>
<path d="M81.0569 89.6269C78.6517 89.614 76.2998 88.9175 74.2755 87.6184C73.7996 87.3178 73.7632 87.0947 74.0478 86.6279C77.1903 81.5316 84.8848 81.5476 87.9726 86.6552C88.2299 87.0833 88.2253 87.2996 87.7767 87.5888C85.7751 88.8911 83.4447 89.5979 81.0569 89.6269Z" fill="#FEFEFE"/>
<path d="M80.9955 80.056C80.1867 80.056 79.3961 79.8167 78.7231 79.3683C78.05 78.9199 77.5247 78.2824 77.2132 77.536C76.9016 76.7897 76.8178 75.9679 76.9723 75.1741C77.1268 74.3803 77.5127 73.6499 78.0814 73.0749C78.6501 72.4999 79.3762 72.1059 80.1683 71.9427C80.9603 71.7794 81.783 71.8541 82.5327 72.1574C83.2824 72.4606 83.9257 72.9789 84.3815 73.6469C84.8373 74.315 85.0853 75.1029 85.0943 75.9116C85.0979 76.453 84.9947 76.9899 84.7905 77.4913C84.5864 77.9928 84.2853 78.4491 83.9046 78.8341C83.5238 79.219 83.0709 79.5251 82.5717 79.7348C82.0725 79.9445 81.5369 80.0536 80.9955 80.056Z" fill="#FEFEFE"/>
</g>
<defs>
<filter id="filter0_d_315_38" x="0" y="0" width="168" height="168" filterUnits="userSpaceOnUse" color-interpolation-filters="sRGB">
<feFlood flood-opacity="0" result="BackgroundImageFix"/>
<feColorMatrix in="SourceAlpha" type="matrix" values="0 0 0 0 0 0 0 0 0 0 0 0 0 0 0 0 0 0 127 0" result="hardAlpha"/>
<feOffset dx="4" dy="4"/>
<feGaussianBlur stdDeviation="7.5"/>
<feComposite in2="hardAlpha" operator="out"/>
<feColorMatrix type="matrix" values="0 0 0 0 0 0 0 0 0 0 0 0 0 0 0 0 0 0 0.25 0"/>
<feBlend mode="normal" in2="BackgroundImageFix" result="effect1_dropShadow_315_38"/>
<feBlend mode="normal" in="SourceGraphic" in2="effect1_dropShadow_315_38" result="shape"/>
</filter>
<clipPath id="clip0_315_38">
<rect width="82" height="62.8515" fill="white" transform="translate(40 50)"/>
</clipPath>
</defs>
</svg>
