<svg width="168" height="168" viewBox="0 0 168 168" fill="none" xmlns="http://www.w3.org/2000/svg">
<g filter="url(#filter0_d_315_37)">
<circle cx="80" cy="80" r="69" fill="#FAEF59"/>
</g>
<g clip-path="url(#clip0_315_37)">
<path d="M39 75.064C39.1361 75.044 39.1321 74.9299 39.1682 74.8338C39.7807 73.1483 41.0077 72.2195 42.7712 72.2035C46.052 72.1775 49.3348 72.1695 52.6156 72.2035C54.8716 72.2275 56.3528 73.7789 56.4089 76.0868C56.4309 76.9576 56.4089 77.8323 56.4089 78.7531C59.6396 77.9304 62.7623 77.0537 65.949 76.4291C67.0339 76.217 68.0668 76.3391 69.1097 76.5833C74.1881 77.7843 79.1843 79.2636 84.1906 80.7148C84.4101 80.7965 84.646 80.8246 84.8786 80.7967C85.1111 80.7688 85.3337 80.6859 85.5277 80.5547C88.3041 78.8212 91.1325 77.1678 93.8889 75.4043C96.5471 73.7048 99.6938 74.0391 101.774 76.1689C102.056 76.4572 102.25 76.4411 102.574 76.247C103.711 75.5644 104.804 74.7577 106.121 74.4595C108.323 73.959 110.229 74.5615 111.826 76.1409C112.136 76.4491 112.365 76.6813 112.899 76.5032C115.924 75.4863 118.904 76.7554 120.351 79.6118C121.703 82.2841 120.868 85.5429 118.324 87.3284C115.553 89.2701 112.761 91.1797 109.969 93.0914C104.536 96.8266 99.0453 100.508 93.3264 103.831C91.725 104.767 90.0536 105.604 88.3882 106.433C86.3685 107.434 84.2967 107.582 82.0968 107.203C73.7257 105.758 65.4226 103.975 57.1195 102.199C56.541 102.075 56.3668 102.153 56.3989 102.76C56.4515 103.451 56.428 104.147 56.3288 104.833C56.0426 106.553 54.6754 107.862 52.9419 107.886C49.4469 107.93 45.9519 107.93 42.457 107.886C40.9957 107.868 39.9768 107.049 39.3183 105.764C39.2162 105.564 39.2562 105.28 38.992 105.164L39 75.064Z" fill="black"/>
<path d="M88.4642 81.9738C91.0765 80.3724 93.4965 78.8371 95.9887 77.4199C97.2277 76.7133 98.5008 76.9635 99.7038 77.9323C98.6149 78.5869 97.572 79.2094 96.5331 79.838C96.2767 79.9785 96.0352 80.1448 95.8125 80.3344C95.5843 80.5256 95.4321 80.7923 95.3836 81.0861C95.3351 81.3799 95.3936 81.6813 95.5483 81.9357C95.8405 82.4902 96.335 82.6984 96.9495 82.6303C97.2907 82.5625 97.6135 82.4226 97.8963 82.22C100.485 80.6867 103.073 79.152 105.659 77.6161C107.172 76.7253 108.551 76.8674 109.887 78.0564C109.238 78.4468 108.611 78.8311 107.977 79.2074C105.483 80.6887 102.989 82.1699 100.495 83.6512C100.239 83.7929 99.9967 83.9585 99.7719 84.1456C99.2414 84.622 99.1714 85.2165 99.5057 85.8131C99.84 86.4096 100.372 86.5957 101.007 86.4296C101.311 86.3327 101.6 86.1946 101.866 86.0192C105.05 84.1376 108.232 82.2514 111.414 80.3604C112.05 79.9821 112.695 79.6118 113.339 79.2555C114.875 78.4047 116.83 78.9972 117.743 80.4865C118.202 81.2185 118.36 82.0989 118.186 82.9448C118.012 83.7907 117.519 84.5369 116.808 85.0284C114.595 86.6037 112.355 88.143 110.113 89.6784C103.785 94.0161 97.4419 98.3257 90.7662 102.121C89.5171 102.832 88.212 103.432 86.9309 104.079C85.4797 104.809 83.9984 104.719 82.4851 104.465C73.9478 103.036 65.4966 101.166 57.0274 99.3946C56.535 99.2926 56.4129 99.0764 56.4149 98.594C56.4309 93.1507 56.4309 87.7073 56.4149 82.264C56.4149 81.7976 56.513 81.5674 57.0154 81.4413C60.086 80.6747 63.1326 79.8159 66.2233 79.1474C67.3042 78.9132 68.301 79.1834 69.2919 79.4356C76.2778 81.2151 83.1897 83.2649 90.0916 85.3387C91.0165 85.5975 91.8895 86.0147 92.6718 86.5717C94.1531 87.6626 94.6315 89.0558 94.087 90.6952C93.8383 91.4772 93.3392 92.1556 92.6667 92.6259C91.9942 93.0961 91.1857 93.3321 90.3659 93.2974C88.6644 93.1974 86.963 92.9872 85.2755 92.777C81.8366 92.3486 78.4037 91.8842 74.9667 91.4439C74.108 91.3338 73.4234 91.8062 73.2833 92.5628C73.1432 93.3195 73.6256 94.0121 74.5083 94.1362C77.2527 94.5365 80.003 94.8788 82.7534 95.2251C84.8952 95.4933 87.043 95.7135 89.1849 95.9797C92.888 96.4401 95.8105 94.5785 96.8274 91.0735C97.502 88.7556 96.6592 86.2694 94.6796 84.6441C93.4365 83.6252 91.9792 83.0627 90.476 82.5823C89.8795 82.3981 89.2709 82.22 88.4642 81.9738Z" fill="#FEFEFE"/>
<path d="M53.6625 90.0327C53.6625 94.57 53.6625 99.1072 53.6625 103.644C53.6625 104.975 53.4624 105.182 52.1432 105.182C49.1287 105.182 46.1141 105.182 43.0995 105.182C42.0226 105.182 41.7404 104.895 41.7404 103.798C41.7404 94.6493 41.7404 85.4989 41.7404 76.3471C41.7404 75.2601 42.0386 74.9459 43.1035 74.9459C46.1728 74.9459 49.2421 74.9459 52.3114 74.9459C53.3783 74.9459 53.6645 75.2461 53.6665 76.3471C53.6665 80.9083 53.6652 85.4702 53.6625 90.0327Z" fill="#FEFEFE"/>
<path d="M91.5248 49.9765C91.5248 49.9765 90.7242 44.2376 84.5189 44.2376C78.3136 44.2376 77.2507 48.165 77.4468 49.9765C77.7131 52.4446 80.3153 54.9127 84.5849 55.181C88.6684 55.4352 92.4396 57.2627 92.0593 61.9187C91.7911 65.1895 88.0559 67.1912 84.3187 67.1232C81.5163 67.0731 78.9801 65.8561 77.5129 63.454C76.6081 61.9728 76.512 60.8518 76.512 60.8518" stroke="black" stroke-width="3" stroke-linecap="round" stroke-linejoin="round"/>
<path d="M84.2526 41.3011V70.3919" stroke="black" stroke-width="3" stroke-linecap="round" stroke-linejoin="round"/>
</g>
<defs>
<filter id="filter0_d_315_37" x="0" y="0" width="168" height="168" filterUnits="userSpaceOnUse" color-interpolation-filters="sRGB">
<feFlood flood-opacity="0" result="BackgroundImageFix"/>
<feColorMatrix in="SourceAlpha" type="matrix" values="0 0 0 0 0 0 0 0 0 0 0 0 0 0 0 0 0 0 127 0" result="hardAlpha"/>
<feOffset dx="4" dy="4"/>
<feGaussianBlur stdDeviation="7.5"/>
<feComposite in2="hardAlpha" operator="out"/>
<feColorMatrix type="matrix" values="0 0 0 0 0 0 0 0 0 0 0 0 0 0 0 0 0 0 0.25 0"/>
<feBlend mode="normal" in2="BackgroundImageFix" result="effect1_dropShadow_315_37"/>
<feBlend mode="normal" in="SourceGraphic" in2="effect1_dropShadow_315_37" result="shape"/>
</filter>
<clipPath id="clip0_315_37">
<rect width="82" height="67.922" fill="white" transform="translate(39 40)"/>
</clipPath>
</defs>
</svg>
