<svg width="168" height="168" viewBox="0 0 168 168" fill="none" xmlns="http://www.w3.org/2000/svg">
<g filter="url(#filter0_d_315_40)">
<circle cx="80" cy="80" r="69" fill="#FAEF59"/>
</g>
<g clip-path="url(#clip0_315_40)">
<path d="M79.5178 122.238C77.0369 121.278 74.5239 120.396 72.1133 119.255C64.8153 115.8 58.0315 111.579 52.2723 105.862C48.9436 102.556 46.1132 98.8877 44.7151 94.3036C44.2387 92.741 43.9977 91.1161 44 89.4825C44 77.1108 44 64.7399 44 52.3696C44 51.0799 44.3615 50.5817 45.5869 50.2141C56.7559 46.8527 67.9243 43.4939 79.092 40.1379C79.6804 39.9528 80.3115 39.9528 80.8999 40.1379C92.0408 43.4859 103.183 46.8339 114.327 50.182C115.654 50.5837 115.996 51.0538 115.996 52.4399C115.996 64.7606 115.996 77.0814 115.996 89.4021C115.996 93.7532 114.389 97.5298 111.888 100.987C107.86 106.575 102.575 110.762 96.8077 114.392C91.7294 117.588 86.384 120.243 80.6649 122.104C80.5963 122.14 80.5334 122.186 80.4781 122.24L79.5178 122.238Z" fill="black"/>
<path d="M47.419 72.2596C47.419 66.1809 47.4311 60.1022 47.403 54.0215C47.403 53.3928 47.6038 53.1557 48.1824 52.987C58.5398 49.8961 68.8946 46.7918 79.2467 43.6741C79.7249 43.5162 80.2405 43.512 80.7212 43.6621C91.0987 46.7864 101.478 49.8981 111.86 52.997C112.42 53.1638 112.591 53.3988 112.591 53.9894C112.572 65.7463 112.572 77.5032 112.591 89.2602C112.591 92.9243 111.199 96.0801 109.138 98.9909C105.677 103.874 101.115 107.573 96.167 110.825C91.3518 114.011 86.1602 116.588 80.7111 118.496C80.2674 118.671 79.7748 118.677 79.3271 118.513C70.9342 115.515 63.2947 111.209 56.6013 105.303C53.1863 102.289 50.2193 98.9025 48.4536 94.6137C47.7582 92.8991 47.408 91.0641 47.423 89.214C47.419 83.5625 47.4177 77.911 47.419 72.2596Z" fill="#FEFEFE"/>
<path d="M62.7664 77.7055C63.5458 77.6814 63.9978 78.1072 64.4377 78.5391C68.2806 82.384 72.1335 86.2168 75.9563 90.0798C76.4344 90.5639 76.6634 90.6121 77.1776 90.0938C84.3893 82.842 91.621 75.6103 98.8728 68.3986C99.1113 68.1462 99.3737 67.9175 99.6563 67.7156C99.9782 67.4934 100.368 67.3917 100.758 67.4284C101.147 67.4652 101.511 67.638 101.786 67.9165C102.056 68.1964 102.222 68.5609 102.255 68.9487C102.289 69.3365 102.187 69.724 101.968 70.0459C101.8 70.2863 101.608 70.5097 101.396 70.7128C93.6673 78.4333 85.9407 86.1552 78.2162 93.8785C76.9647 95.1279 76.1833 95.136 74.9498 93.9026C70.6135 89.5675 66.2778 85.2318 61.9428 80.8955C60.9203 79.869 60.9143 78.7139 61.8885 78.0148C62.1375 77.815 62.4471 77.7059 62.7664 77.7055Z" fill="black"/>
</g>
<defs>
<filter id="filter0_d_315_40" x="0" y="0" width="168" height="168" filterUnits="userSpaceOnUse" color-interpolation-filters="sRGB">
<feFlood flood-opacity="0" result="BackgroundImageFix"/>
<feColorMatrix in="SourceAlpha" type="matrix" values="0 0 0 0 0 0 0 0 0 0 0 0 0 0 0 0 0 0 127 0" result="hardAlpha"/>
<feOffset dx="4" dy="4"/>
<feGaussianBlur stdDeviation="7.5"/>
<feComposite in2="hardAlpha" operator="out"/>
<feColorMatrix type="matrix" values="0 0 0 0 0 0 0 0 0 0 0 0 0 0 0 0 0 0 0.25 0"/>
<feBlend mode="normal" in2="BackgroundImageFix" result="effect1_dropShadow_315_40"/>
<feBlend mode="normal" in="SourceGraphic" in2="effect1_dropShadow_315_40" result="shape"/>
</filter>
<clipPath id="clip0_315_40">
<rect width="72" height="82.2389" fill="white" transform="translate(44 40)"/>
</clipPath>
</defs>
</svg>
