<svg width="168" height="168" viewBox="0 0 168 168" fill="none" xmlns="http://www.w3.org/2000/svg">
<g filter="url(#filter0_d_315_36)">
<circle cx="80" cy="80" r="69" fill="#FAEF59"/>
</g>
<g clip-path="url(#clip0_315_36)">
<path d="M40 72.3797C40.4846 70.7701 41.6566 69.6365 42.7325 68.4346C44.7249 66.2074 46.7173 63.9787 48.7098 61.7486C50.8146 59.3876 53.8609 58.6917 56.7727 59.917C57.949 60.4123 59.121 60.9331 60.2929 61.4113C61.3231 61.8555 62.433 62.0846 63.5548 62.0846C64.6766 62.0846 65.7866 61.8555 66.8167 61.4113C67.8969 60.9652 68.9707 60.5019 70.0466 60.0365C73.1142 58.713 76.1584 58.7045 79.1172 60.3183C80.1995 60.9097 81.0086 61.0804 82.236 60.3375C84.5202 58.9564 87.0712 58.9777 89.5262 60.1049C91.4347 60.9801 93.3004 61.9493 95.2004 62.8437C97.2028 63.7873 99.1731 63.6976 101.067 62.5299C103.02 61.3323 104.954 60.1091 106.903 58.9009C109.42 57.3489 112.453 57.8079 114.302 60.1091C116.509 62.8501 118.678 65.6253 120.809 68.4346C122.557 70.7316 122.371 73.8035 120.403 75.9938C116.942 79.8363 113.467 83.6725 109.979 87.5022C109.552 87.9569 109.591 88.1789 110.041 88.544C111.07 89.3808 111.871 90.3735 112.225 91.7077C113.079 94.897 110.148 97.9668 107.943 98.4684C107.492 98.5709 107.285 98.6499 107.377 99.2263C107.881 102.405 104.175 106.22 100.847 105.417C100.296 105.285 100.379 105.645 100.287 105.912C99.487 108.239 98.0097 109.868 95.5291 110.376C93.9046 110.709 92.4764 110.19 91.2404 109.123C90.7195 108.675 90.2243 108.194 89.6436 107.659C89.2935 108.839 88.5762 109.687 87.78 110.479C85.7584 112.479 82.7676 112.581 80.6371 110.692C79.4224 109.61 78.2163 108.515 77.0635 107.368C76.611 106.916 76.3911 107.005 76.0154 107.422C75.1956 108.335 74.3417 109.217 73.4708 110.084C71.5068 112.039 68.5715 112.139 66.4517 110.344C65.506 109.544 64.6777 108.653 64.2956 107.437C60.6217 109.067 57.5263 107.831 55.9701 104.123C55.842 103.825 55.7566 103.758 55.4044 103.85C54.6098 104.054 53.7817 104.09 52.9725 103.957C52.1632 103.823 51.3904 103.524 50.703 103.076C50.0155 102.629 49.4284 102.044 48.9787 101.358C48.5291 100.672 48.2267 99.9006 48.0907 99.0918C47.9007 98.0009 48.1825 96.9848 48.6543 95.9601C47.4012 95.6378 46.4768 94.8522 45.6144 93.9599C44.6912 93.0329 44.1644 91.7834 44.1453 90.4753C44.1262 89.1672 44.6162 87.9029 45.5119 86.9493C46.6284 85.7347 47.7897 84.5605 48.9595 83.3395C46.9016 81.5847 44.9035 79.8278 42.8349 78.1371C41.5541 77.0889 40.4547 75.9511 40.0171 74.2945L40 72.3797Z" fill="#232021"/>
<path d="M78.2419 62.9974L74.3823 65.7064C72.3521 67.1282 71.3936 69.0815 71.9444 71.0903C72.6232 73.5239 74.1133 75.2872 76.6835 75.8849C78.148 76.2286 79.5142 75.902 80.8249 75.1484C82.014 74.4632 83.0771 73.5153 84.4946 73.272C85.0974 73.1566 85.7171 73.1612 86.3181 73.2854C86.9192 73.4095 87.4899 73.6509 87.9977 73.9957C95.5291 78.9632 102.266 84.8957 108.752 91.1334C109.796 92.1389 109.832 93.4624 108.876 94.549C107.774 95.8043 106.86 96.1544 105.767 95.7402C105.281 95.5566 104.913 95.1959 104.548 94.8522C101.22 91.7739 97.8795 88.7062 94.5749 85.6002C94.118 85.1732 93.8832 85.2074 93.5459 85.6642C93.1403 86.2086 92.2459 86.6248 92.3227 87.2098C92.3889 87.7221 93.2022 88.1384 93.6911 88.5931C97.054 91.7127 100.417 94.833 103.78 97.954C104.698 98.8079 104.931 99.9862 104.29 100.913C103.381 102.23 102.476 103.047 101.02 102.646C100.509 102.51 100.134 102.181 99.7602 101.835C96.3915 98.7182 93.0144 95.6121 89.6628 92.4783C89.2359 92.0898 88.9968 91.9788 88.6232 92.4954C88.2197 93.0526 87.321 93.4731 87.3701 94.0538C87.4107 94.5469 88.2475 94.976 88.7385 95.4285C91.3628 97.8579 93.9871 100.285 96.6114 102.71C97.9777 103.972 98.0246 105.214 96.7566 106.585C95.4544 107.992 94.1799 108.079 92.8158 106.809C89.8542 104.079 86.8969 101.343 83.9438 98.6008C83.5468 98.2315 83.2906 98.0522 82.9085 98.6008C82.5263 99.1494 81.6169 99.5828 81.6554 100.153C81.6895 100.642 82.5242 101.081 83.0131 101.534C84.0506 102.495 85.0944 103.455 86.1298 104.409C87.3189 105.515 87.3765 106.796 86.2985 107.987C84.9301 109.503 83.6791 109.695 82.3769 108.51C81.1281 107.385 79.9198 106.215 78.6689 105.095C78.355 104.813 78.3508 104.591 78.4895 104.215C79.717 100.917 77.0272 96.8994 73.4601 96.7265C72.9178 96.7009 72.7983 96.513 72.6574 96.0412C71.9785 93.7528 70.8194 91.84 68.3516 91.1099C67.9716 90.9989 67.9759 90.8153 68.0591 90.5272C69.1116 86.8981 65.2157 83.4547 62.5494 83.5914C62.0135 83.6191 61.9794 83.3779 61.9089 82.9509C61.371 79.2642 56.999 76.9438 53.7969 78.6302C52.8042 79.1532 52.104 80.0071 51.3697 80.8098C50.9833 81.2367 50.7613 81.2752 50.3023 80.8738C48.1676 78.991 45.9709 77.1572 43.8063 75.2979C42.5254 74.1963 42.4187 72.9496 43.5351 71.6965C45.9773 68.9399 48.4294 66.1939 50.8915 63.4585C52.0976 62.12 53.8801 61.7507 55.5581 62.4232C57.3598 63.1362 59.0612 64.1182 60.9654 64.5579C63.264 65.1144 65.6807 64.9168 67.8585 63.9944C69.0561 63.4863 70.2387 62.9398 71.4491 62.4573C73.7547 61.5522 75.9833 61.6824 78.2419 62.9974Z" fill="white"/>
<path d="M107.473 86.136C104.997 83.9436 102.676 81.621 100.149 79.5183C96.6947 76.6577 93.0165 74.1003 89.3213 71.5792C86.956 69.9674 84.3516 70.0016 81.8069 71.3059C80.953 71.7329 80.1674 72.2964 79.337 72.7746C77.3538 73.9146 74.7345 72.4864 74.6107 70.1916C74.5836 69.8155 74.6576 69.4391 74.825 69.1012C74.9924 68.7634 75.2471 68.4765 75.5628 68.2703C78.1095 66.4728 80.6286 64.6412 83.2287 62.9142C84.7913 61.881 86.5461 61.7999 88.2645 62.5919C90.1965 63.4821 92.0922 64.4491 94.0284 65.35C96.9252 66.7034 99.7644 66.5497 102.497 64.9038C104.418 63.7489 106.295 62.5406 108.195 61.3601C109.759 60.3888 111.213 60.645 112.345 62.0881C114.35 64.6498 116.351 67.2115 118.35 69.7732C119.545 71.3059 119.481 72.8728 118.179 74.3116L107.932 85.6493C107.778 85.8201 107.629 85.9695 107.473 86.136Z" fill="white"/>
<path d="M50.836 98.4876C50.8169 98.1529 50.8697 97.818 50.9908 97.5053C51.112 97.1927 51.2987 96.9097 51.5383 96.6752C54.6017 93.4859 57.6587 90.2859 60.7391 87.1115C61.704 86.1146 62.9849 86.0997 64.0309 86.992C64.2444 87.182 64.4578 87.3869 64.6713 87.5961C65.6682 88.6059 65.7387 89.9166 64.7631 90.9477C61.7033 94.1783 58.6236 97.3911 55.5239 100.586C54.5441 101.598 53.2205 101.598 52.1638 100.65C51.4871 100.042 50.7805 99.4376 50.836 98.4876Z" fill="white"/>
<path d="M49.7473 93.3621C48.5817 93.2362 47.7128 92.4186 47.145 91.3298C46.5772 90.2411 47.0276 89.3381 47.8217 88.5205C49.9928 86.279 52.1403 84.0183 54.3007 81.7683C55.1909 80.8418 56.1195 80.5921 57.1015 81.0041C58.1688 81.4481 59.2362 82.9253 59.2106 83.8988C59.198 84.4102 58.9929 84.8981 58.6364 85.265C56.2355 87.7655 53.8339 90.2653 51.4316 92.7644C51.0196 93.1935 50.4923 93.3493 49.7473 93.3621Z" fill="white"/>
<path d="M69.9591 96.6219C69.9687 96.9417 69.9109 97.26 69.7896 97.5561C69.6682 97.8521 69.4859 98.1193 69.2546 98.3404C67.2266 100.46 65.1986 102.589 63.1556 104.691C62.1822 105.69 60.8416 105.701 59.7913 104.77C59.5522 104.557 59.3223 104.334 59.1017 104.102C58.218 103.169 58.1774 101.876 59.0654 100.934C61.1333 98.7424 63.2197 96.5664 65.3245 94.406C66.2574 93.4497 67.5404 93.4347 68.5587 94.3185C69.2845 94.9483 70.0402 95.5823 69.9591 96.6219Z" fill="white"/>
<path d="M76.0453 102.499C76.0481 102.796 75.9892 103.091 75.8724 103.364C75.7555 103.638 75.5832 103.884 75.3664 104.087C74.0856 105.438 72.8047 106.796 71.494 108.118C70.5525 109.065 69.2738 109.087 68.2555 108.233C68.0122 108.019 67.7838 107.806 67.5617 107.575C66.6097 106.604 66.5392 105.283 67.4593 104.281C68.7401 102.892 70.053 101.532 71.3808 100.187C72.2945 99.2647 73.5369 99.2263 74.5573 100.025C75.6461 100.876 76.041 101.521 76.0453 102.499Z" fill="white"/>
</g>
<defs>
<filter id="filter0_d_315_36" x="0" y="0" width="168" height="168" filterUnits="userSpaceOnUse" color-interpolation-filters="sRGB">
<feFlood flood-opacity="0" result="BackgroundImageFix"/>
<feColorMatrix in="SourceAlpha" type="matrix" values="0 0 0 0 0 0 0 0 0 0 0 0 0 0 0 0 0 0 127 0" result="hardAlpha"/>
<feOffset dx="4" dy="4"/>
<feGaussianBlur stdDeviation="7.5"/>
<feComposite in2="hardAlpha" operator="out"/>
<feColorMatrix type="matrix" values="0 0 0 0 0 0 0 0 0 0 0 0 0 0 0 0 0 0 0.25 0"/>
<feBlend mode="normal" in2="BackgroundImageFix" result="effect1_dropShadow_315_36"/>
<feBlend mode="normal" in="SourceGraphic" in2="effect1_dropShadow_315_36" result="shape"/>
</filter>
<clipPath id="clip0_315_36">
<rect width="82" height="54.0497" fill="white" transform="translate(40 58)"/>
</clipPath>
</defs>
</svg>
