<svg width="42" height="42" viewBox="0 0 42 42" fill="none" xmlns="http://www.w3.org/2000/svg">
<g clip-path="url(#clip0_75_47)">
<path d="M21.0002 41.1925C32.1508 41.1925 41.1901 32.1531 41.1901 21.0025C41.1901 9.85186 32.1508 0.8125 21.0002 0.8125C9.84954 0.8125 0.810181 9.85186 0.810181 21.0025C0.810181 32.1531 9.84954 41.1925 21.0002 41.1925Z" fill="white"/>
<path d="M20.9993 41.9999C16.1409 41.9998 11.4329 40.315 7.67735 37.2328C3.92184 34.1506 1.35122 29.8616 0.403473 25.0965C-0.544272 20.3315 0.189498 15.3852 2.47976 11.1005C4.77003 6.8158 8.47509 3.45776 12.9637 1.59853C17.4522 -0.260692 22.4466 -0.506073 27.0958 0.904202C31.745 2.31448 35.7614 5.29315 38.4606 9.33271C41.1599 13.3723 42.375 18.2228 41.8989 23.0578C41.4228 27.8928 39.285 32.4132 35.8497 35.8487C33.9041 37.805 31.5898 39.356 29.0407 40.4119C26.4916 41.4678 23.7584 42.0075 20.9993 41.9999ZM20.9993 1.62086C10.3142 1.62086 1.62104 10.314 1.62104 20.9991C1.62104 31.6842 10.3142 40.3808 20.9993 40.3808C31.6844 40.3808 40.381 31.6877 40.381 21.0026C40.381 10.3174 31.6853 1.62433 20.9993 1.62433V1.62086Z" fill="black"/>
<path d="M32.4299 20.8902C32.4292 21.6908 32.343 22.4889 32.1726 23.2711C32.1266 23.4682 32.1262 23.6732 32.1717 23.8704C32.2173 24.0676 32.3074 24.2517 32.4352 24.4087C33.2353 25.4599 33.6471 26.7556 33.6007 28.0759C33.5403 30.8707 31.3178 33.3085 28.5431 33.6349C26.9829 33.8186 25.5759 33.4485 24.3176 32.5131C24.164 32.3902 23.9849 32.3033 23.7934 32.2586C23.6019 32.214 23.4028 32.2127 23.2107 32.255C20.0029 32.8928 17.0138 32.3425 14.3179 30.4813C11.4417 28.4994 9.76782 25.7431 9.30581 22.2719C9.14898 21.0265 9.20818 19.7634 9.48082 18.5382C9.52705 18.3411 9.52742 18.1361 9.48191 17.9389C9.4364 17.7417 9.34622 17.5575 9.21831 17.4007C8.40017 16.3174 8.02304 15.0906 8.05016 13.7334C8.10791 10.943 10.3357 8.49822 13.1078 8.17446C14.6679 7.99246 16.0749 8.36084 17.3332 9.29623C17.4867 9.41969 17.6658 9.50732 17.8574 9.55273C18.0491 9.59814 18.2485 9.6002 18.441 9.55874C21.9209 8.87535 25.1069 9.56924 27.9043 11.7515C30.8654 14.0563 32.3442 17.1399 32.4299 20.8902Z" fill="#FEFEFE" stroke="black" stroke-width="2"/>
<path d="M20.8622 28.677C19.1218 28.6393 17.5555 28.1625 16.3217 26.8578C16.0159 26.5383 15.7707 26.1659 15.5981 25.7588C15.4919 25.4997 15.487 25.2102 15.5842 24.9477C15.6815 24.6851 15.8738 24.4687 16.1231 24.3413C16.6393 24.0788 17.3096 24.2214 17.5782 24.7315C18.0901 25.7045 18.9398 26.1473 19.9548 26.3433C21.0626 26.5568 22.1222 26.4002 23.097 25.8069C23.4834 25.5861 23.7937 25.2532 23.9869 24.8523C24.2608 24.2608 24.1549 23.7602 23.6587 23.3376C23.097 22.8607 22.418 22.6122 21.7337 22.3751C20.6916 22.0067 19.6109 21.7626 18.5784 21.3636C17.9363 21.1281 17.3302 20.8041 16.7776 20.401C15.0529 19.1016 14.7589 16.9841 16.0715 15.2682C16.915 14.1657 18.0613 13.5435 19.3965 13.2793C21.2017 12.9231 22.9071 13.1918 24.4603 14.2147C25.1474 14.65 25.6936 15.2752 26.0327 16.0146C26.1509 16.2737 26.1656 16.5682 26.0737 16.8378C25.9817 17.1074 25.7902 17.3316 25.5383 17.4645C25.0176 17.7401 24.3369 17.5896 24.063 17.0646C23.5616 16.1126 22.7304 15.6777 21.7363 15.4738C20.7278 15.2528 19.6735 15.397 18.7613 15.8807C18.3124 16.117 17.9344 16.4346 17.6955 16.8913C17.3779 17.4995 17.4846 18.0376 18.007 18.4778C18.6195 18.9905 19.3554 19.2381 20.0904 19.4937C21.1772 19.8717 22.3086 20.1167 23.3709 20.5682C23.9095 20.7882 24.4181 21.0754 24.8846 21.4231C26.6137 22.7461 26.8972 24.8619 25.5523 26.5804C24.5854 27.8195 23.2606 28.418 21.7363 28.6253C21.5692 28.649 21.4003 28.6639 21.2323 28.6735C21.1072 28.6831 20.9847 28.677 20.8622 28.677Z" fill="black"/>
</g>
<defs>
<clipPath id="clip0_75_47">
<rect width="42" height="41.9948" fill="white"/>
</clipPath>
</defs>
</svg>
