<svg width="42" height="42" viewBox="0 0 42 42" fill="none" xmlns="http://www.w3.org/2000/svg">
<g clip-path="url(#clip0_73_40)">
<path d="M21.0002 41.1925C32.1508 41.1925 41.1901 32.1531 41.1901 21.0025C41.1901 9.85186 32.1508 0.8125 21.0002 0.8125C9.84954 0.8125 0.810181 9.85186 0.810181 21.0025C0.810181 32.1531 9.84954 41.1925 21.0002 41.1925Z" fill="white"/>
<path d="M20.9993 41.9999C16.1409 41.9998 11.4329 40.315 7.67735 37.2328C3.92184 34.1506 1.35122 29.8616 0.403473 25.0965C-0.544272 20.3315 0.189498 15.3852 2.47976 11.1005C4.77003 6.8158 8.47509 3.45776 12.9637 1.59853C17.4522 -0.260692 22.4466 -0.506073 27.0958 0.904202C31.745 2.31448 35.7614 5.29315 38.4606 9.33271C41.1599 13.3723 42.375 18.2228 41.8989 23.0578C41.4228 27.8928 39.285 32.4132 35.8497 35.8487C33.9041 37.805 31.5898 39.356 29.0407 40.4119C26.4916 41.4678 23.7584 42.0075 20.9993 41.9999ZM20.9993 1.62086C10.3142 1.62086 1.62104 10.314 1.62104 20.9991C1.62104 31.6842 10.3142 40.3808 20.9993 40.3808C31.6844 40.3808 40.381 31.6877 40.381 21.0026C40.381 10.3174 31.6853 1.62433 20.9993 1.62433V1.62086Z" fill="black"/>
<path d="M30.1006 12.6585C30.0788 12.7337 30.0429 12.879 29.993 13.019C27.7045 19.4358 25.4155 25.8494 23.1259 32.2598C22.9964 32.6211 22.8039 32.902 22.3751 32.8872C21.9463 32.8723 21.7748 32.5748 21.6707 32.2073C21.1229 30.2822 20.5647 28.3572 20.0301 26.4269C19.9425 26.1171 19.8507 26.1075 19.575 26.2143C18.1155 26.7795 16.6464 27.3194 15.1807 27.8698C14.8307 28.0011 14.4929 28.0816 14.1963 27.7683C13.9137 27.4708 14.0047 27.1418 14.1289 26.8119C14.6863 25.3331 15.2376 23.8526 15.8037 22.3773C15.8973 22.1349 15.8772 22.0466 15.6042 21.9713C13.673 21.4358 11.748 20.8793 9.81947 20.3341C9.45546 20.2309 9.15183 20.0716 9.1107 19.649C9.07483 19.2832 9.28571 19.0365 9.75384 18.8694C12.4075 17.9232 15.0617 16.9767 17.7165 16.0299L28.985 12.0048C29.5966 11.7826 30.0884 12.0416 30.1006 12.6585Z" fill="black"/>
<path d="M22.4382 29.7626C21.8256 27.6171 21.228 25.4672 20.5822 23.3312C20.4212 22.7983 20.4869 22.4685 20.9016 22.0642C23.0437 19.9755 25.1463 17.8457 27.2595 15.7273C27.3591 15.6149 27.4515 15.4962 27.536 15.3721L27.641 15.4456L22.5257 29.7757L22.4382 29.7626Z" fill="#FEFEFE"/>
<path d="M26.513 14.375C26.4929 14.5728 26.373 14.6323 26.2907 14.7136C24.0822 16.9268 21.8731 19.1398 19.6634 21.3524C19.4796 21.537 19.3317 21.5957 19.0622 21.5178C16.7872 20.8554 14.5121 20.2158 12.2126 19.4869L26.513 14.375Z" fill="#FEFEFE"/>
<path d="M15.9017 26.0983C16.3392 24.9267 16.7566 23.8337 17.1547 22.733C17.2422 22.4967 17.335 22.4591 17.5669 22.5405C18.0411 22.7058 18.6729 22.698 18.9713 23.0147C19.2968 23.3595 19.3055 23.9956 19.4753 24.4961C19.5383 24.6816 19.5094 24.7586 19.3274 24.8278C18.2065 25.2382 17.0891 25.6564 15.9017 26.0983Z" fill="#FEFEFE"/>
</g>
<defs>
<clipPath id="clip0_73_40">
<rect width="42" height="41.9948" fill="white"/>
</clipPath>
</defs>
</svg>
