<svg width="32" height="32" viewBox="0 0 32 32" fill="none" xmlns="http://www.w3.org/2000/svg">
<g clip-path="url(#clip0_308_32)">
<path d="M16 31.3823C24.4954 31.3823 31.3823 24.4954 31.3823 16C31.3823 7.50466 24.4954 0.617798 16 0.617798C7.50466 0.617798 0.617798 7.50466 0.617798 16C0.617798 24.4954 7.50466 31.3823 16 31.3823Z" fill="white"/>
<path d="M15.9993 31.9974C12.2978 31.9973 8.7109 30.7137 5.84967 28.3654C2.98844 26.0172 1.02995 22.7495 0.307884 19.1191C-0.414179 15.4887 0.144862 11.7203 1.88976 8.45588C3.63465 5.19148 6.45744 2.63307 9.87717 1.21657C13.2969 -0.199927 17.102 -0.386876 20.6441 0.687577C24.1862 1.76203 27.2462 4.03141 29.3027 7.10904C31.3592 10.1867 32.2849 13.8822 31.9222 17.5658C31.5595 21.2495 29.9308 24.6935 27.3135 27.3109C25.8312 28.8014 24.068 29.9831 22.1259 30.7875C20.1838 31.5919 18.1014 32.0032 15.9993 31.9974ZM15.9993 1.23358C7.85858 1.23358 1.23552 7.85664 1.23552 15.9974C1.23552 24.1381 7.85858 30.7638 15.9993 30.7638C24.1401 30.7638 30.7658 24.1408 30.7658 16C30.7658 7.85928 24.1407 1.23622 15.9993 1.23622V1.23358Z" fill="black"/>
<path d="M24.9614 27.9253C24.9435 25.811 24.2874 23.9207 22.9389 22.2947C21.4417 20.4903 19.5263 19.4001 17.1867 19.1021C15.0281 18.8266 13.0162 19.2699 11.2085 20.4757C8.9508 21.9815 7.60557 24.0905 7.23359 26.7968C7.18209 27.1708 7.15626 27.5478 7.15628 27.9253H5.63663C5.62035 27.9254 5.60424 27.9221 5.58926 27.9157C5.57428 27.9093 5.56074 27.9 5.54945 27.8883C5.53816 27.8766 5.52935 27.8627 5.52356 27.8475C5.51776 27.8323 5.51509 27.8161 5.51571 27.7998C5.72318 22.995 8.18833 19.7879 12.5491 17.922C9.34855 15.6577 9.15034 11.2131 11.7371 8.6257C12.3057 8.05135 12.9832 7.59619 13.7299 7.28682C14.4766 6.97746 15.2775 6.82011 16.0857 6.82398C16.894 6.82786 17.6933 6.99288 18.437 7.30939C19.1807 7.62591 19.8538 8.08755 20.4169 8.66733C22.9938 11.3102 22.7057 15.6928 19.5256 17.9485C19.7741 18.0489 20.0179 18.1361 20.2524 18.2438C23.3697 19.6756 25.3988 22.0337 26.2894 25.3551C26.4386 25.9191 26.5324 26.4962 26.5696 27.0783C26.5696 27.1074 26.5616 27.1444 26.5821 27.1662L26.6072 27.3095C26.5739 27.4581 26.5739 27.6122 26.6072 27.7608C26.6383 27.9016 26.5841 27.9326 26.4421 27.93C25.9505 27.9187 25.4556 27.9253 24.9614 27.9253Z" fill="black"/>
<path d="M16.0536 8.47572C18.4982 8.46977 20.5095 10.4784 20.5095 12.9263C20.4966 14.0975 20.0228 15.2164 19.1906 16.0405C18.3584 16.8646 17.2349 17.3275 16.0637 17.3289C14.8925 17.3303 13.768 16.87 12.9338 16.0479C12.0997 15.2258 11.6232 14.108 11.6076 12.9369C11.597 10.4903 13.603 8.47572 16.0536 8.47572Z" fill="#FEFEFE"/>
</g>
<defs>
<clipPath id="clip0_308_32">
<rect width="32" height="32" fill="white"/>
</clipPath>
</defs>
</svg>
